<svg width="13" height="10" viewBox="0 0 13 10" fill="none" xmlns="http://www.w3.org/2000/svg">
<path d="M6.34615 6.92308C7.08961 6.92308 7.69231 6.32038 7.69231 5.57692C7.69231 4.83347 7.08961 4.23077 6.34615 4.23077C5.6027 4.23077 5 4.83347 5 5.57692C5 6.32038 5.6027 6.92308 6.34615 6.92308Z" fill="white"/>
<path fill-rule="evenodd" clip-rule="evenodd" d="M9.23077 0.769231C9.23077 0.344379 8.88637 0 8.46154 0H3.84615C3.42133 0 3.07692 0.344379 3.07692 0.769231C3.07692 1.19408 2.73252 1.53846 2.30769 1.53846H1.15385C0.516592 1.53846 0 2.05505 0 2.69231V8.84615C0 9.48341 0.516592 10 1.15385 10H11.1538C11.7911 10 12.3077 9.48341 12.3077 8.84615V2.69231C12.3077 2.05505 11.7911 1.53846 11.1538 1.53846H10C9.57517 1.53846 9.23077 1.19408 9.23077 0.769231ZM9.23077 5.57692C9.23077 7.17003 7.93929 8.46154 6.34615 8.46154C4.75302 8.46154 3.46154 7.17003 3.46154 5.57692C3.46154 3.98381 4.75302 2.69231 6.34615 2.69231C7.93929 2.69231 9.23077 3.98381 9.23077 5.57692Z" fill="white"/>
</svg>
