<svg width="120" height="56" viewBox="0 0 120 56" fill="none" xmlns="http://www.w3.org/2000/svg">
<path fill-rule="evenodd" clip-rule="evenodd" d="M16.6574 0H16.7747C18.4356 0.923912 20.1493 1.74646 21.8208 2.64925C21.8176 11.9528 21.8218 21.2563 21.8176 30.5577C21.8303 30.9083 21.7743 31.2694 21.8768 31.6105C22.2463 31.9325 22.7341 32.0835 23.1576 32.3232C25.7023 33.66 28.2639 34.9672 30.8139 36.2955C33.3797 37.5995 35.9202 38.9595 38.4987 40.2424C38.1935 41.7767 37.6593 43.2845 36.8504 44.6244C34.1917 43.1894 31.4854 41.8442 28.8129 40.4367C24.8153 38.3788 20.8282 36.3008 16.8296 34.2449C16.5783 34.1657 16.6807 33.8564 16.6479 33.6579C16.6575 22.4389 16.6374 11.22 16.6574 0Z" fill="white"/>
<path fill-rule="evenodd" clip-rule="evenodd" d="M23.3802 3.40647C23.4974 3.36952 23.5967 3.46876 23.6991 3.50888C25.3178 4.41062 26.9766 5.24266 28.5815 6.1708C28.5467 13.5811 28.5816 20.9893 28.5636 28.4007C31.9921 30.1904 35.4354 31.9537 38.8639 33.7467C39.0307 33.7973 38.9938 33.9938 39.0286 34.1268C39.2155 35.7107 38.9695 37.2987 38.8079 38.8741C33.6488 36.2555 28.5235 33.5619 23.376 30.919C23.3834 21.7474 23.3718 12.577 23.3802 3.40647Z" fill="white"/>
<path fill-rule="evenodd" clip-rule="evenodd" d="M96.125 9.89344C96.6709 9.90717 97.221 9.85541 97.7648 9.91771C98.5071 10.7814 99.1797 11.7064 99.9114 12.5807C100.646 11.7011 101.298 10.7498 102.064 9.90082C102.607 9.86598 103.153 9.90292 103.697 9.89025C102.921 11.377 102.12 12.8531 101.317 14.324C100.391 14.4169 99.4352 14.3567 98.4987 14.3525C97.7289 12.8563 96.8979 11.3907 96.125 9.89344Z" fill="white"/>
<path fill-rule="evenodd" clip-rule="evenodd" d="M61.8129 11.6499C62.8804 11.6351 63.9469 11.6626 65.0144 11.6341C65.0661 13.522 65.0112 15.4131 65.0418 17.3011C66.5877 16.0203 68.7132 15.6507 70.6592 15.9643C72.4141 16.2156 74.0191 17.2134 75.094 18.6104C76.2206 20.0517 76.7707 21.9217 76.625 23.742C76.5036 25.8348 75.4477 27.8548 73.8005 29.1503C72.3011 30.3488 70.2928 30.805 68.4059 30.5579C67.1652 30.4195 66.0259 29.8504 65.0281 29.1261C65.0313 29.4998 65.0334 29.8736 65.0408 30.2485C63.9638 30.2633 62.8868 30.2485 61.8108 30.258C61.8161 24.0535 61.8129 17.8522 61.8129 11.6499ZM68.8885 19.0982C70.8239 18.8902 72.695 20.3325 73.1501 22.1899C73.4616 23.4897 73.1997 24.9637 72.2864 25.9668C71.146 27.311 69.0965 27.7471 67.4926 27.0491C66.3026 26.4863 65.403 25.3153 65.2224 24.006C65.0218 22.7907 65.3174 21.474 66.122 20.5268C66.7967 19.6937 67.8146 19.151 68.8885 19.0982Z" fill="white"/>
<path fill-rule="evenodd" clip-rule="evenodd" d="M30.1171 12.803C31.2299 12.7953 32.3411 12.8028 33.4528 12.7997C33.4468 13.7241 33.4475 14.6485 33.4537 15.5747C32.3456 15.5849 31.2385 15.5644 30.1316 15.5865C30.1027 14.6579 30.1279 13.7303 30.1171 12.803Z" fill="white"/>
<path fill-rule="evenodd" clip-rule="evenodd" d="M83.3281 16.0742C84.5741 15.7701 85.9013 15.7437 87.1483 16.0594C88.199 16.3212 89.1408 16.977 89.729 17.8882C89.7279 17.3244 89.7311 16.7584 89.7247 16.1924C90.7912 16.1882 91.8587 16.1924 92.9262 16.1914C92.9241 20.8795 92.9241 25.5699 92.9273 30.258C91.8851 30.2601 90.8419 30.2369 89.7997 30.2707C89.6952 29.7111 89.8367 29.1377 89.7744 28.5717C89.2095 29.4767 88.2982 30.1514 87.2497 30.3721C85.6553 30.7184 83.9395 30.636 82.4264 29.9972C80.3579 29.0997 78.7561 27.178 78.283 24.9669C77.8976 23.1497 78.0908 21.1815 78.9905 19.5396C79.9059 17.8829 81.4697 16.5345 83.3281 16.0742ZM85.2298 19.0908C87.3996 18.9282 89.3383 20.9049 89.3869 23.0304C89.5252 24.8244 88.2602 26.5698 86.5655 27.1125C85.2065 27.518 83.6322 27.1326 82.6513 26.0957C81.1244 24.6385 81.0157 21.9397 82.4781 20.4023C83.1739 19.622 84.1802 19.1289 85.2298 19.0908Z" fill="white"/>
<path fill-rule="evenodd" clip-rule="evenodd" d="M43.6796 16.0085C44.877 15.8121 46.1367 15.9272 47.2675 16.3738C48.258 16.7656 49.0552 17.5226 49.6591 18.3832C50.449 17.1752 51.6601 16.1489 53.1341 15.962C54.5606 15.8036 56.1244 16.0697 57.2468 17.02C58.1549 17.7803 58.7008 18.8922 58.9394 20.0378C59.2193 21.2553 59.138 22.5097 59.1517 23.7472C59.1517 25.9181 59.1496 28.0901 59.1527 30.261C58.0789 30.2462 57.004 30.26 55.9301 30.2536C55.9365 28.1249 55.9365 25.9973 55.9312 23.8686C55.9048 22.7219 55.8826 21.5361 55.4581 20.4549C55.1836 19.7379 54.4793 19.2575 53.7328 19.1582C52.9609 19.0664 52.1131 19.0991 51.4552 19.5595C50.884 19.9407 50.5714 20.5921 50.4036 21.2384C50.205 22.0007 50.128 22.7916 50.1047 23.5772C50.0815 25.8062 50.1142 28.0341 50.0857 30.2631C49.0119 30.2526 47.9349 30.2462 46.861 30.2652C46.8272 27.8958 46.8737 25.5253 46.8346 23.1559C46.7755 22.1992 46.7164 21.2035 46.3003 20.3229C45.9846 19.6408 45.2666 19.2364 44.5402 19.1519C43.819 19.0791 43.0439 19.1023 42.402 19.4813C41.7969 19.8266 41.42 20.4602 41.2362 21.1159C40.9385 22.1644 40.8878 23.2636 40.8846 24.3469C40.8825 26.3183 40.8846 28.2875 40.8825 30.2589C39.834 30.2494 38.7845 30.26 37.7349 30.2526C37.7043 25.5686 37.7645 20.8836 37.7085 16.1996C38.7834 16.1869 39.8572 16.1838 40.9321 16.1996C40.9184 16.7223 40.9195 17.246 40.9311 17.7687C41.6048 16.8859 42.5667 16.1933 43.6796 16.0085Z" fill="white"/>
<path fill-rule="evenodd" clip-rule="evenodd" d="M95.3547 16.1925C98.4464 16.1894 101.538 16.1936 104.63 16.1904C104.626 17.3614 104.624 18.5313 104.63 19.7023C102.695 22.1753 100.726 24.6196 98.8064 27.1042C100.876 27.1263 102.945 27.0978 105.014 27.1179C104.996 28.1675 105.03 29.2181 104.995 30.2676C101.609 30.2391 98.2204 30.2634 94.8352 30.256C94.8489 29.2434 94.8342 28.2329 94.8426 27.2203C96.9322 24.5647 99.0155 21.9071 101.097 19.243C99.1834 19.2399 97.2712 19.242 95.3589 19.2409C95.3484 18.2251 95.3558 17.2083 95.3547 16.1925Z" fill="white"/>
<path fill-rule="evenodd" clip-rule="evenodd" d="M106.801 16.1897C107.906 16.1918 109.011 16.1918 110.117 16.1897C110.127 18.5644 110.099 20.9381 110.131 23.3128C110.205 24.4046 110.236 25.5904 110.859 26.5343C111.519 27.4509 112.796 27.5586 113.822 27.3654C114.758 27.1837 115.461 26.3886 115.694 25.488C116.13 24.0403 116.065 22.5093 116.07 21.0152C116.065 19.4102 116.081 17.8052 116.062 16.1992C117.126 16.1792 118.189 16.196 119.252 16.1897V30.2406C118.183 30.2754 117.113 30.249 116.044 30.2522C116.048 29.7528 116.049 29.2533 116.044 28.7549C115.609 29.2523 115.151 29.7496 114.562 30.0674C113.524 30.6566 112.273 30.7083 111.119 30.532C109.975 30.3609 108.873 29.8055 108.142 28.8954C107.124 27.6695 106.832 26.0233 106.802 24.4732C106.797 21.7121 106.801 18.9509 106.801 16.1897Z" fill="white"/>
<path fill-rule="evenodd" clip-rule="evenodd" d="M6.01049 21.5096C8.53197 19.0979 11.7144 17.4042 15.0997 16.5796C15.1092 18.8561 15.1007 21.1337 15.1049 23.4091C11.762 24.6255 8.89626 27.1713 7.42012 30.4203C6.33043 32.7728 6.01893 35.4622 6.48564 38.0069C7.02098 41.0944 8.7252 43.9559 11.1633 45.9209C13.7302 48.02 17.1175 49.0917 20.4235 48.8246C24.4634 48.4814 28.1917 46.1489 30.5327 42.8799C32.4174 43.8745 34.3191 44.8386 36.2049 45.8311C32.9866 50.9913 27.3481 54.6531 21.2524 55.1579C17.1798 55.4831 13.01 54.5243 9.49917 52.4315C5.86266 50.287 2.94522 46.9398 1.35714 43.0245C0.506091 40.8853 -0.0630371 38.593 0.00559627 36.2784C0.0161552 35.4474 -0.0186993 34.6154 0.0383192 33.7854C0.487076 29.1574 2.62739 24.7058 6.01049 21.5096Z" fill="white"/>
<path fill-rule="evenodd" clip-rule="evenodd" d="M30.1199 16.6374C31.199 16.6458 32.2792 16.6247 33.3594 16.649C33.3404 19.8167 33.3668 22.9833 33.3488 26.151C34.2326 26.6241 35.1269 27.0771 36.0128 27.548C35.9896 28.5733 35.9833 29.5975 35.9632 30.6227C34.0119 29.6144 32.0606 28.6102 30.1167 27.5892C30.1262 23.9389 30.1156 20.2876 30.1199 16.6374Z" fill="white"/>
<path fill-rule="evenodd" clip-rule="evenodd" d="M89.7613 32.795C90.8087 32.7961 91.8573 32.7971 92.9047 32.7929C92.9058 37.2984 92.911 41.805 92.9026 46.3105C93.7082 46.7487 94.5308 47.1563 95.3438 47.5797C95.3544 48.625 95.3544 49.6704 95.3417 50.7157C94.4886 50.267 93.6364 49.8119 92.7801 49.3695C92.3725 50.0252 92.0177 50.7157 91.5658 51.343C91.1329 51.2891 90.6958 51.3102 90.2607 51.2996C90.5764 50.3852 90.87 49.4645 91.1899 48.5522C90.7148 48.2766 90.2111 48.058 89.7444 47.7729C89.7718 42.7807 89.737 37.7873 89.7613 32.795Z" fill="white"/>
<path fill-rule="evenodd" clip-rule="evenodd" d="M97.6376 32.8017C98.6806 32.8038 99.7243 32.8036 100.768 32.8034C100.768 33.7199 100.774 34.6368 100.765 35.5531C99.7242 35.5599 98.682 35.56 97.6408 35.5525C97.6248 34.6356 97.6356 33.7184 97.6376 32.8017Z" fill="white"/>
<path fill-rule="evenodd" clip-rule="evenodd" d="M58.8844 37.8731C60.3257 36.6789 62.2369 36.1087 64.0985 36.2544C65.9748 36.3463 67.8026 37.2227 69.02 38.6587C69.7549 39.5119 70.2512 40.5572 70.5025 41.6532C69.3379 41.6342 68.1743 41.6638 67.0117 41.6374C66.5608 40.7694 65.8217 40.0313 64.8883 39.704C63.8736 39.3587 62.7184 39.3492 61.7354 39.799C60.6013 40.3386 59.7799 41.4494 59.5518 42.6795C59.4061 43.5232 59.4261 44.4144 59.7165 45.2274C60.1684 46.5029 61.3098 47.524 62.6529 47.7626C63.6677 47.9178 64.769 47.8344 65.658 47.2811C66.2884 46.8915 66.7298 46.258 66.9895 45.5748C68.1563 45.5526 69.3241 45.5717 70.4919 45.5632C70.0812 47.2051 69.1879 48.7678 67.7941 49.7604C66.2071 50.9514 64.1143 51.2682 62.1862 50.9789C60.2233 50.6653 58.4357 49.4732 57.3471 47.8165C56.3704 46.3361 55.9058 44.5083 56.1476 42.7439C56.3313 40.8275 57.3956 39.0673 58.8844 37.8731Z" fill="white"/>
<path fill-rule="evenodd" clip-rule="evenodd" d="M72.5738 41.7822C73.3625 38.5332 76.6157 36.017 79.9819 36.2462C82.6523 36.3612 85.1263 38.0887 86.2973 40.4676C86.9171 41.7854 87.029 43.2721 86.9741 44.7092C83.2172 44.7261 79.4614 44.7145 75.7066 44.7134C75.7964 45.6278 76.2008 46.5264 76.923 47.1124C77.8564 47.9149 79.1636 48.0828 80.3441 47.9254C81.418 47.7776 82.3883 47.1388 82.9775 46.2339C84.1527 46.2476 85.3279 46.2212 86.5021 46.2487C85.8717 47.7966 84.8444 49.2242 83.3904 50.0901C81.8604 51.0383 79.965 51.2547 78.2144 50.9496C76.0561 50.5663 74.1703 49.0743 73.1799 47.1356C72.3267 45.5053 72.1145 43.5625 72.5738 41.7822ZM77.1849 40.0706C78.8564 38.719 81.7062 39.0379 82.892 40.8815C83.1507 41.2574 83.3143 41.6861 83.4569 42.118C80.9069 42.1064 78.3559 42.1465 75.8069 42.0969C76.0762 41.3155 76.5091 40.5679 77.1849 40.0706Z" fill="white"/>
<path fill-rule="evenodd" clip-rule="evenodd" d="M97.6313 36.719C98.6798 36.7095 99.7283 36.719 100.778 36.7126C100.772 39.9416 100.765 43.1705 100.771 46.4005C101.54 46.7891 102.307 47.1851 103.067 47.5916C103.057 48.6242 103.065 49.6569 103.062 50.6896C101.263 49.7435 99.4348 48.8449 97.6567 47.865C97.5986 44.1525 97.6514 40.4336 97.6313 36.719Z" fill="white"/>
</svg>
