<svg width="31" height="30" viewBox="0 0 31 30" fill="none" xmlns="http://www.w3.org/2000/svg">
<path d="M27.3941 0H3.39355C1.74364 0 0.394043 1.35001 0.394043 2.99987V27.0001C0.394043 28.65 1.74364 30 3.39355 30H27.3941C29.0444 30 30.394 28.65 30.394 27.0001V2.99987C30.3945 1.35045 29.0444 0 27.3941 0ZM9.39391 25.5H4.89375V11.9999H9.39391V25.5ZM7.14383 9.45005C5.64407 9.45005 4.44373 8.25019 4.44373 6.75003C4.44373 5.24988 5.64363 4.05002 7.14383 4.05002C8.64403 4.05002 9.84392 5.24988 9.84392 6.75003C9.84392 8.25019 8.64358 9.45005 7.14383 9.45005ZM25.8943 25.5H21.3942V17.5501C21.3942 16.3502 20.3444 15.3001 19.1441 15.3001C17.9438 15.3001 16.894 16.3498 16.894 17.5501V25.5H12.3939V11.9999H16.894V13.7999C17.6439 12.5996 19.2943 11.7001 20.6443 11.7001C23.4941 11.7001 25.8943 14.0998 25.8943 16.9499V25.5Z" fill="#2F3642"/>
</svg>
