<svg width="128" height="32" viewBox="0 0 128 32" fill="none" xmlns="http://www.w3.org/2000/svg">
<path d="M54.5652 15.7808C54.5652 15.3774 54.3474 15.1893 53.9727 15.1893H52.8959V12.2824H56.1525C57.4171 12.2824 57.9536 12.8481 57.9536 14.1128V22.5345C57.9536 22.9101 58.1694 23.1277 58.5458 23.1277H59.6233V26.0063H56.368C55.1019 26.0063 54.5652 25.4675 54.5652 24.1748V15.7808ZM54.7276 6.90204H57.687V10.0496H54.7276V6.90204Z" fill="white"/>
<path d="M61.6302 15.7805C61.6302 15.3771 61.4153 15.189 61.04 15.189H59.9635V12.2821H63.1121C64.3217 12.2821 64.9137 12.8478 64.9137 13.8176V14.2195C64.9137 14.5158 64.8594 14.8133 64.8594 14.8133H64.9137C65.5062 13.6547 66.9861 11.9585 69.759 11.9585C72.7994 11.9585 74.5488 13.5457 74.5488 17.1786V22.5341C74.5488 22.9124 74.7613 23.1273 75.1379 23.1273H76.2134V26.0059H72.9588C71.6685 26.0059 71.1313 25.4671 71.1313 24.1744V17.8795C71.1313 16.2127 70.7004 15.0822 68.9771 15.0822C67.1465 15.0822 65.7748 16.2392 65.2915 17.8795C65.1004 18.4436 65.0229 19.0641 65.0229 19.7082V26.0059H61.6302V15.7805Z" fill="white"/>
<path d="M82.9923 11.9587C85.9783 11.9587 86.9474 13.6293 86.9474 13.6293H87.0018C87.0018 13.6293 86.9735 13.2783 86.9735 12.8204V10.3998C86.9735 9.99678 86.7593 9.80766 86.381 9.80766H85.3078V6.90192H88.5618C89.8261 6.90192 90.3915 7.4657 90.3915 8.73181V22.5344C90.3915 22.9126 90.6071 23.1275 90.9846 23.1275H92.0318V26.0062H88.887C87.6463 26.0062 87.1912 25.413 87.1912 24.6074V24.0944H87.1362C87.1362 24.0944 86.0067 26.3288 82.8559 26.3288C79.1432 26.3288 76.748 23.3961 76.748 19.1446C76.748 14.7863 79.3594 11.9587 82.9923 11.9587ZM87.0554 19.118C87.0554 16.9916 85.9524 14.8914 83.6652 14.8914C81.7826 14.8914 80.2203 16.4279 80.2203 19.1446C80.2203 21.7549 81.5945 23.4501 83.6114 23.4501C85.3876 23.4501 87.0554 22.1578 87.0554 19.118Z" fill="white"/>
<path d="M99.584 11.9583C103.513 11.9583 105.666 14.8395 105.666 18.4708C105.666 18.8758 105.583 19.7357 105.583 19.7357H96.1116C96.3841 22.1573 98.1579 23.4225 100.229 23.4225C102.438 23.4225 104.077 21.8887 104.077 21.8887L105.503 24.2576C105.503 24.2576 103.406 26.3284 99.9871 26.3284C95.4421 26.3284 92.6155 23.0466 92.6155 19.1442C92.6155 14.9196 95.4657 11.9583 99.584 11.9583ZM102.169 17.3668C102.115 15.7262 100.983 14.5957 99.584 14.5957C97.8357 14.5957 96.599 15.6458 96.2214 17.3668H102.169Z" fill="white"/>
<path d="M108.151 15.7804C108.151 15.377 107.936 15.1888 107.557 15.1888H106.482V12.282H109.604C110.815 12.282 111.433 12.7937 111.433 13.9506V14.7569C111.433 15.2686 111.381 15.6185 111.381 15.6185H111.433C112.053 13.6546 113.694 12.0928 115.793 12.0928C116.089 12.0928 116.412 12.1495 116.412 12.1495V15.5114C116.412 15.5114 116.063 15.4578 115.579 15.4578C114.124 15.4578 112.457 16.2927 111.836 18.3364C111.648 19.0098 111.54 19.7621 111.54 20.5708V26.0058H108.151V15.7804Z" fill="white"/>
<path d="M118.635 21.6478C118.635 21.6478 120.384 23.6643 122.725 23.6643C123.774 23.6643 124.583 23.2353 124.583 22.3196C124.583 20.3828 117.342 20.4068 117.342 15.9696C117.342 13.2251 119.819 11.9585 122.673 11.9585C124.527 11.9585 127.487 12.5789 127.487 14.8133V16.2392H124.475V15.5656C124.475 14.9197 123.505 14.5958 122.75 14.5958C121.542 14.5958 120.707 15.0264 120.707 15.8335C120.707 17.9872 128 17.5542 128 22.1311C128 24.7149 125.713 26.3286 122.725 26.3286C118.958 26.3286 117.019 23.8792 117.019 23.8792L118.635 21.6478Z" fill="white"/>
<path d="M38.7738 9.88807H37.0265V6.90204H45.2847C48.7307 6.90204 51.2063 8.67711 51.2063 11.8245C51.2063 13.9509 50.0474 15.3237 48.8926 15.9148V15.9699C50.9625 16.5877 51.9595 18.527 51.9595 20.4634C51.9595 24.2854 48.9182 26.0062 45.3668 26.0062H40.6032C39.3386 26.0062 38.7738 25.4675 38.7738 24.1748V9.88807ZM45.3127 14.7058C46.7915 14.7058 47.6279 13.6293 47.6279 12.2566C47.6279 10.8851 46.8199 9.88807 45.2576 9.88807H42.297V14.7058H45.3127ZM42.8908 23.0208H45.6354C47.3574 23.0208 48.3257 21.8625 48.3257 20.2485C48.3257 18.6613 47.3296 17.5045 45.6354 17.5045H42.297V22.4263C42.297 22.8029 42.5134 23.0208 42.8908 23.0208Z" fill="white"/>
<path d="M17.9597 0.345043L17.0293 3.70997H12.873L13.8107 0.324646C10.2967 0.767516 7.14224 2.36162 4.73828 4.72038H21.4298C25.4758 4.69525 27.8111 6.76665 26.798 10.4703C26.1147 12.9673 24.3143 14.5893 22.7669 15.2951L22.7494 15.3577C24.9799 16.0728 25.1357 18.3411 24.5099 20.6213C23.2825 25.1139 19.5537 27.1582 15.3844 27.1845L10.6424 27.2064L9.71967 30.5897C11.593 31.372 13.6484 31.8056 15.8056 31.8056C24.5346 31.8056 31.6109 24.7291 31.6109 16.0002C31.6109 8.00225 25.669 1.39625 17.9597 0.345043Z" fill="#B10835"/>
<path d="M15.5759 8.98981L11.8217 22.7555C11.6649 23.4219 11.8366 23.7626 12.2313 23.785V23.7876L16.2968 23.7626C18.3168 23.7494 19.7945 22.2916 20.3162 20.3923C20.8237 18.5233 20.4636 17.0088 18.4749 17.0227H14.3368L15.2254 13.7382H19.081C20.8201 13.7276 22.0162 12.6132 22.4578 10.9986C22.8974 9.38389 22.3026 7.99605 20.4691 8.00715H2.1713C1.15632 9.73522 0.45987 11.6713 0.163536 13.7382H9.21071L8.28434 17.0227H0.0362549C0.332589 21.6544 2.62282 25.7417 6.05922 28.4384L11.4801 8.98981H15.5759Z" fill="#B10835"/>
<path d="M17.0289 3.70966L17.9594 0.344746C17.2545 0.24847 16.5363 0.194458 15.8051 0.194458C15.1289 0.194458 14.4641 0.241943 13.8102 0.324185L12.8724 3.70966H17.0289Z" fill="white"/>
<path d="M9.21067 13.7379H0.163506C0.0576022 14.4766 0 15.2313 0 15.9998C0 16.3437 0.0146861 16.6838 0.036389 17.0226H8.2843L9.21067 13.7379Z" fill="white"/>
<path d="M15.3842 27.1838C19.5534 27.1575 23.2823 25.1132 24.5097 20.6206C25.1355 18.3403 24.9797 16.0719 22.7492 15.3569L22.7666 15.2944C24.3141 14.5885 26.1144 12.9666 26.7978 10.4695C27.8108 6.7658 25.4756 4.69456 21.4295 4.71952H4.73804C3.74477 5.69419 2.88073 6.79941 2.17139 8.00678H20.4692C22.3027 7.99552 22.8975 9.38352 22.4579 10.998C22.0163 12.6127 20.8202 13.7272 19.081 13.7376H15.2254L14.3369 17.0223H18.475C20.4637 17.0084 20.8238 18.5229 20.3163 20.3919C19.7948 22.2912 18.3169 23.749 16.2969 23.7621L12.2314 23.7872V23.7846C11.8367 23.7621 11.665 23.4214 11.8218 22.7551L15.5759 8.98944H11.4801L6.05931 28.438C7.17007 29.3092 8.39816 30.0373 9.71942 30.589L10.6422 27.2055L15.3842 27.1838Z" fill="white"/>
</svg>
