<svg width="566" height="506" viewBox="0 0 566 506" fill="none" xmlns="http://www.w3.org/2000/svg">
<path d="M321.545 2.68471L304.888 62.9366H230.47L247.26 2.32568C184.347 10.2547 127.871 38.7906 84.8308 81.0252H383.671C456.11 80.5773 497.921 117.655 479.786 183.972C467.55 228.672 435.314 257.718 407.611 270.348L407.298 271.474C447.232 284.271 450.023 324.883 438.819 365.707C416.843 446.142 350.083 482.746 275.437 483.219L190.536 483.608L174.015 544.184C207.556 558.19 244.355 565.954 282.977 565.954C439.259 565.954 565.952 439.258 565.952 282.973C565.952 139.785 459.571 21.5101 321.545 2.68471Z" fill="#68707D"/>
<path d="M278.874 157.465L211.66 403.93C208.853 415.859 211.926 421.96 218.993 422.354V422.402L291.782 421.96C327.947 421.717 354.406 395.617 363.745 361.618C372.831 328.156 366.382 301.042 330.778 301.284H256.692L272.597 242.477H341.628C372.766 242.288 394.181 222.337 402.086 193.429C409.956 164.527 399.308 139.678 366.482 139.878H38.8808C20.7097 170.809 8.24071 205.475 2.93386 242.477H164.913L148.328 301.284H0.656982C5.96008 384.214 46.965 457.385 108.489 505.671L205.542 157.465H278.874Z" fill="#68707D"/>
<path d="M304.893 62.9361L321.55 2.68421C308.931 0.967806 296.073 -0.000488281 282.981 -0.000488281C270.876 -0.000488281 258.974 0.848958 247.265 2.32392L230.475 62.9361H304.893Z" fill="#5E6673"/>
<path d="M164.908 242.474H2.9299C1.03334 255.706 0 269.211 0 282.969C0 289.129 0.265213 295.221 0.651779 301.281H148.324L164.908 242.474Z" fill="#5E6673"/>
<path d="M275.44 483.218C350.086 482.746 416.846 446.142 438.821 365.708C450.025 324.883 447.234 284.27 407.3 271.474L407.613 270.347C435.317 257.717 467.552 228.673 479.789 183.972C497.923 117.656 456.113 80.5764 383.674 81.0243H84.8336C67.049 98.4761 51.5813 118.262 38.8796 139.879H366.482C399.306 139.679 409.955 164.526 402.085 193.429C394.18 222.336 372.765 242.289 341.627 242.478H272.596L256.691 301.285H330.778C366.382 301.042 372.83 328.157 363.743 361.619C354.405 395.618 327.945 421.717 291.781 421.96L218.992 422.402V422.355C211.925 421.96 208.852 415.86 211.659 403.93L278.873 157.466H205.541L108.488 505.671C128.376 521.27 150.364 534.308 174.018 544.184L190.539 483.608L275.44 483.218Z" fill="#5E6673"/>
</svg>
