<svg width="320" height="502" viewBox="0 0 320 502" fill="none" xmlns="http://www.w3.org/2000/svg">
<path d="M415.84 379.203L412.079 379.587L411.419 378.417L408.692 377.384L402.204 382.714L397.011 384.657L395.839 383.486H391.805L388.045 384.657L384.67 385.042L384.147 383.624L380.51 383.224V385.042L377.645 386.351L375.18 382.315L372.976 381.929L370.896 383.486L365.441 382.577L363.885 380.112H361.804L359.6 382.315L347.77 384.781L331.929 397.322V399.078L328.802 403.362L323.486 404.657L322.701 403.623L321.144 402.329L318.417 405.703H304.258L300.559 402.976L300.31 402.441L300.559 402.279L300.235 402.291L299.326 400.373L296.723 399.078L295.69 395.704H292.7V393.486L297.37 391.021V388.94L295.69 387.521L295.814 385.18L297.509 382.452L299.974 382.714L301.393 381.805L302.053 375.566L301.007 372.962L299.575 369.202L300.36 365.428L299.575 358.293L301.655 357.895L302.825 360.621L301.916 362.702L302.315 365.428L303.609 365.69L303.735 363.872L304.904 361.792L308.018 361.281L308.28 357.383L307.371 353.224L306.076 351.268L306.201 349.451L305.292 346.599L306.598 347.633L308.678 348.417L311.917 345.952L313.485 342.44L312.826 341.269L310.235 340.882L308.678 339.587L310.757 338.804L311.145 339.974L314.257 339.837L314.133 338.542L316.338 334.258L320.498 330.883L325.814 330.098L327.646 331.144L327.384 332.565L324.781 333.211L324.395 334.258L327.123 334.644L325.565 335.815L325.69 337.248L335.428 336.986L336.337 335.167L339.85 334.383L341.282 335.292L343.624 335.69L343.871 337.109L337.122 343.087L337.77 346.599L346.35 348.679L347.645 352.315L346.861 354.259L347.259 356.86L352.838 357.383L354.395 354.656L355.828 350.099H360.758C360.758 350.099 360.896 349.589 360.634 348.804C360.372 348.031 363.748 343.734 363.748 343.734H371.544L373.624 342.564L374.145 340.882L371.929 340.62L372.976 338.02L374.732 337.433L375.441 339.587L387.782 345.814H393.113L400.648 348.679L404.669 354.259H414.545L420 356.598L420.124 360.111L423.897 362.44L424.932 365.567L424.021 370.883L415.84 379.203ZM359.368 1.33032L337.682 9.46069L335.603 19.8595L331.444 24.0068L331.107 30.9431L334.568 34.4057L333.187 39.5988L326.251 39.2502L317.944 34.7543V30.2459L321.754 27.1332L322.091 22.6248L313.436 20.1957L309.624 23.6707L303.735 23.322L304.781 25.7499L308.928 27.4818L311.705 34.7543L318.977 44.4546L327.297 53.459L325.565 56.9215L316.212 53.1103L310.672 52.4131L308.242 58.3035L309.277 62.1134L304.431 67.3066L306.512 72.1636L315.516 80.4707L314.818 83.5958L311.356 80.4707L304.781 83.5958L300.621 83.2485L296.113 86.0125L293.349 80.1346L290.223 83.2485L294.034 90.8695L299.575 90.5197L302.003 91.2169L300.271 96.4113L289.189 97.1086L286.413 94.3308L283.299 95.0293L280.533 91.5668L278.106 85.6764L275.328 84.9791L277.756 78.054L275.678 74.9289L263.212 70.7816L254.892 63.8453L259.052 62.4633L262.165 65.9246L270.484 66.2732L274.294 68.0038L289.189 66.9704L293.697 68.0038L302.003 58.6521L302.352 52.0769L299.238 43.41L290.92 38.2168L279.488 37.1697L269.439 31.2917L258.019 32.6738L253.162 35.4391L247.969 34.4057L246.237 30.5945L250.049 29.2125L244.157 28.5152L241.568 30.1836L239.313 31.6279L230.995 30.5945L229.961 28.1666L235.502 27.4818L238.964 23.6707L237.234 21.9388L232.725 20.5443L230.645 19.5109L226.835 20.5443L227.182 24.3555H223.022L224.407 20.8942L224.754 18.1289L220.944 18.465V21.9388L219.214 25.0527L218.528 28.8638L217.482 21.9388L215.751 24.3555L214.718 28.1666L213.149 32.6738L210.907 30.9431L211.244 26.7833L213.149 24.3555V22.2762H208.13L208.479 25.7499L206.747 28.8638L203.97 29.5611L204.319 32.6738L194.617 32.3264L194.966 34.4057L197.047 36.1363L196.012 38.5642L193.235 38.2168L191.156 43.7574L190.471 38.5642L187.694 38.9141L188.391 43.41L185.963 39.9475L183.884 42.3753L185.614 45.8379L182.502 45.1406L178.342 49.9977L173.497 56.5729L177.308 59.0008L173.149 59.3494L172.8 61.7661L172.45 63.8453L170.371 63.1605L167.257 68.3537L168.64 71.1178L164.829 70.433L161.715 72.5135L156.522 82.8986L150.981 91.5668L153.746 93.2974L151.666 96.0627L151.318 99.524L148.901 100.57L144.045 108.528L134.344 118.926L137.12 121.355L142.663 119.623L142.313 122.388L137.12 124.816L132.264 122.039L130.196 122.737L130.882 127.245L127.594 123.77L122.911 126.198H117.37L119.1 128.976L116.336 130.358V132.437L118.067 133.821L112.874 133.123L112.525 138.328L109.411 137.98L107.68 139.014L103.173 136.933L101.441 140.06L107.68 141.79L106.286 143.871L101.79 143.174L101.093 144.904L99.0135 147.681L103.173 150.795L107.68 151.828L110.096 148.017L110.794 151.492H114.954L117.033 145.95L118.067 152.525L112.176 154.605L111.49 157.719L108.017 153.907L99.0135 154.256L98.6649 158.764L104.207 156.685L98.3275 163.26L100.396 166.037L107.333 159.798L108.366 161.877L102.475 168.117L104.554 169.848L99.0135 172.613L99.7095 175.39L103.173 173.658L103.521 175.738L98.6649 184.046L103.521 189.586L105.936 189.936V192.015L108.017 192.712L110.446 192.015L109.748 194.094L111.49 194.792L114.604 191.667L119.1 190.283L120.496 187.507L122.575 187.855L122.911 185.44L127.594 181.629L131.927 180.932L132.264 176.772L130.532 173.658L133.31 174.693L134.344 171.579L135.738 178.851L138.852 180.932L137.543 188.017L137.531 188.03L137.12 190.283L139.199 190.981L141.28 193.061L141.628 198.254L142.313 200.334L143.01 207.259L148.552 216.959L147.17 219.039L146.473 223.534L147.444 226.2L149.238 231.156L154.793 231.854L157.555 233.236L159.636 230.808L159.287 226.661L162.401 221.803L166.908 222.152H170.371L172.8 214.182L176.959 206.225L176.261 200.334L174.182 197.906L175.913 196.175L176.261 193.397L174.531 190.283L175.228 188.204L180.071 186.473L181.803 183.011L184.581 184.743L185.963 182.662L187.694 180.234L181.106 179.898L178.342 182.662L176.934 179.238L174.056 177.88L174.904 176.025L179.299 175.004L181.84 176.361L186.735 177.544L189.948 174.331L189.45 170.271L188.092 169.761L188.266 166.051L182.002 163.509L179.475 167.059L176.772 169.761L174.232 168.927L174.742 166.723L178.627 164.866L180.147 161.816L179.137 156.411L178.116 148.64L180.482 148.291L180.147 143.733L178.789 136.796L180.658 136.971L181.84 135.788L182.177 132.912L184.369 133.085L185.725 131.217L187.42 126.659L190.123 125.812L191.978 122.936L193.671 123.111L199.076 117.021L202.289 110.769L204.157 110.259L203.647 107.382L200.097 106.884L200.944 104.68L202.974 102.152L202.626 100.122L201.616 98.4284L202.126 96.0627L204.493 95.0542L207.369 89.9718L212.102 90.308L214.805 89.1252L215.813 89.8112L219.027 88.9633L225.626 95.0542L226.125 102.314L223.423 102.152L217.508 113.809L209.736 125.14L205.502 126.149L205.676 128.354L204.991 129.698L203.309 131.566L203.647 135.614L205.34 137.817L204.991 141.193L207.196 143.733L207.707 146.61L207.022 150.322L208.042 159.798L216.15 164.356H218.865L219.537 167.57L221.056 168.927L223.423 168.08L227.818 166.897L231.542 162.5L233.398 164.02L236.772 159.96L239.152 160.471L240.159 158.777L243.535 157.432L245.402 156.075L249.625 155.901L253.51 154.555L255.54 152.189L258.243 152.687L257.059 154.892L257.233 156.584L265.514 156.237L267.545 159.449L266.362 160.471L262.302 160.808L259.936 164.692L258.081 166.211V168.416L255.714 169.425L253.349 171.118L247.93 170.782C247.93 170.782 247.595 169.089 247.096 169.089C246.585 169.089 241.854 169.599 241.854 169.599L241.007 170.271L239.649 168.416L238.802 169.599L238.466 171.454H233.909L232.725 173.149L231.206 172.813L229.672 174.157L228.828 176.523L225.963 177.544V181.766L229.339 183.285L227.308 184.817L229.001 187.183L231.368 189.374L234.244 188.03L235.253 193.771L234.406 204.929L231.877 206.959L227.308 206.112L224.78 203.236L221.393 198.839L219.201 198.167L214.967 201.891L212.265 208.479L211.255 217.432L212.265 220.484L213.149 226.399L217.171 231.306L216.498 231.605H216.486L215.652 231.978L215.315 235.354L212.439 237.021L210.745 234.68L209.051 235.017L208.552 237.021H205.34L204.656 240.085L202.126 243.473L197.893 244.83L193.335 243.809L192.999 241.442L194.518 241.269L194.854 239.076L192.663 238.23L185.725 239.587L178.789 241.952L173.721 247.695L164.593 249.388L159.686 254.295L155.465 253.448L154.617 250.235L151.067 247.695L150.732 246.013L153.945 245.84L154.617 243.809L152.936 241.779L150.06 243.473L148.702 246.013L143.969 246.512L145.489 245.166L146.51 244.481L145.153 243.473L144.867 243.709L141.429 246.512L138.391 247.022L135.85 249.898L134.169 250.06L131.293 251.592L129.599 249.724L130.445 247.359L132.3 247.195L133.659 244.992L130.445 244.145L126.385 244.481L124.195 242.452L125.713 240.77L124.53 238.404L122.837 237.021L122.675 235.017L119.797 234.68L122.164 231.468L123.159 230.135L123.683 229.437L123.173 226.399L125.202 225.552L125.713 223.696L128.416 223.36L129.599 220.148L132.3 219.637C132.3 219.637 133.483 220.148 133.659 219.637C133.833 219.125 134.331 216.249 134.331 216.249L130.283 214.905L127.594 215.241L129.101 210.334L131.293 207.295L131.118 202.725L130.445 200.533L126.561 202.227L122.837 207.12L114.892 207.295L113.709 212.363L111.516 219.125L112.363 225.552L115.577 229.275L116.075 234.17L115.227 235.863L115.401 238.068L116.921 241.616L114.218 242.452L114.892 244.145L116.585 246.013L115.912 248.205L116.585 249.898L112.363 250.397L111.678 254.295L108.813 255.814L108.466 251.754L101.877 252.264L101.205 253.61L102.551 255.814L102.051 256.66L100.021 256.486L98.503 253.959L93.9324 254.631L87.5065 255.478L86.4968 257.669L87.3447 260.546L87.6796 263.76L84.9778 264.943L85.1397 267.308L86.3238 268.155L82.774 268.491L82.1017 263.422L83.2845 261.729L83.109 259.027L80.5815 260.882L79.05 268.491L73.8208 272.887L75.3385 274.632H81.2538L81.4294 276.773L70.7678 276.437L70.9434 278.13L72.4624 279.313L67.0576 278.977L62.6625 279.139L61.1173 279.824L59.6095 280.496L52.0134 281.344L48.2906 288.442L48.6268 291.144L43.0476 293.847L34.9397 296.387L35.7739 298.242L38.3151 299.264L37.3066 300.609H28.5139L21.2415 295.876L22.4243 294.357L22.25 292.327L16.8451 291.991L16.6708 299.426L18.2035 306.86L15.488 307.209L14.4795 305.678C14.4795 305.678 13.8072 305.516 13.2967 305.516H8.0537L4.84018 300.098L-0.73896 300.447L-1.41131 301.792L-4.78669 300.945L-11.3868 301.281L-12.9058 302.813L-11.0506 304.669L-9.69226 305.341L-10.0284 306.524L-8.34761 308.043L-11.0506 308.728L-10.2028 312.44L-6.31814 312.103L0.283218 317.346L3.49552 317.857L3.32119 319.713L5.86115 320.225L5.68681 322.926L11.1041 323.934L10.7555 324.955L7.89183 325.802L8.0537 328.505H5.35066L7.71754 330.696L9.23653 335.267L14.3052 338.642L13.969 341.854L12.6244 345.403L15.8366 349.301L15.6623 353.697L13.8072 352.851L12.45 350.135L11.266 352.501L9.23653 358.928L11.4403 361.469L10.5937 362.315H8.38989L7.89183 366.375L5.86115 371.107L0.12014 376.825L-6.46754 376.126L-16.6796 371.618H-22.3957L-36.2558 365.567L-40.4156 362.963L-42.3205 364.52L-50.1035 360.883H-52.5326L-56.3425 357.247H-61.0252L-63.4419 359.675V361.407L-68.2977 360.535V359.152L-70.3782 359.502L-71.2373 360.198L-74.3636 361.407V362.615L-72.968 365.217L-72.6193 369.202L-71.7602 373.698L-73.3166 376.825L-74.3636 379.077V389.812L-74.7123 390.473L-80.416 401.244L-85.7822 409.9L-90.2918 411.805L-90.9903 416.139L-92.3711 418.392L-90.4649 420.635L-89.4315 423.761H-85.0986L-87.0036 428.954L-89.0829 432.764L-89.5946 437.783L-92.3711 441.083V443.151H-87.8627L-85.0986 446.276H-72.7936L-68.1234 448.356L-66.0441 453.2L-65.0107 459.949L-62.5828 463.935L-57.5639 465.503L-52.8812 461.344L-47.8624 461.519L-44.5629 459.949H-37.4635L-35.5586 462.03L-30.0168 461.855L-28.1118 464.632H-23.7777L-22.2214 463.076L-19.979 463.251L-14.0886 456.314L-9.75451 455.106H-4.90995L-3.51548 451.818L2.37493 445.405L6.8709 442.815V440.037L4.1056 435.367L3.58264 431.73L14.492 421.681L19.5108 415.442L21.254 412.155L34.2425 411.369L35.9744 408.866L42.0391 406.437L45.3261 404.881V400.198L47.2323 399.339L46.7704 397.609L46.3595 396.039L47.2323 392.403L44.9775 390.672L47.2323 387.035L52.7741 386.525L55.3639 382.714L60.2209 384.096L62.6487 386.351L67.6676 386.525L70.0955 388.43L73.3837 388.94L74.5927 391.021L81.1804 390.672L89.6605 381.668L92.2627 381.145L93.1218 382.539L97.6315 382.191L100.396 377.508L106.112 375.093L112.176 379.414L119.1 382.714V392.403L127.594 401.593V404.707H130.882L132.612 408.518L135.564 408.866L141.28 416.487L145.427 419.776L153.398 420.635L157.382 425.666L159.113 425.84L159.81 427.745L164.306 428.083L165.352 429.988V434.321L168.64 434.844L169.686 435.528L171.068 435.018L172.973 434.671L174.007 441.419L178.69 448.867V452.504L175.402 454.245L174.879 455.977L175.564 458.058L173.149 460.125L173.659 462.901L176.784 463.598L180.595 460.125L183.535 456.488L184.755 451.469L187.519 450.087L188.391 444.022L183.185 440.037L182.152 435.528L186.137 429.825L188.391 429.127L191.505 431.207L195.839 432.416L198.254 435.367L200.159 438.306L202.064 435.704V433.113L197.744 427.92L192.028 425.142L187.345 423.063L180.247 418.904L176.261 417.521L172.8 417.348L174.705 415.442L177.47 412.678L177.133 411.369H171.591L167.78 412.328L165.003 411.369L161.891 407.309L158.59 405.567L154.617 398.642L152.886 391.544L145.776 384.956L139.375 381.494L137.643 376.649L138.852 372.141L140.757 370.236L140.06 368.505L138.503 367.123L139.885 363.486L145.601 362.789L147.332 360.36H152.712L151.865 363.748L151.491 365.217L153.746 369.377L154.27 371.966L157.555 370.584L158.59 366.947L161.019 366.425L165.003 369.551L166.051 371.966L166.212 377.858L170.371 379.763L169.163 382.191L170.371 384.619L175.402 386.351L176.61 389.639L184.058 391.021L187.345 392.752L189.189 394.694L190.633 396.214L193.584 397.609L195.14 399.688L198.254 400.373L200.335 402.453L202.064 405.914L206.574 406.961L209.425 410.124L210.558 411.369H213.498L210.558 420.299L211.082 425.492L210.558 430.684L212.289 432.416L217.832 434.671L218.865 438.48L220.944 439.862L221.816 440.835L225.278 444.719L226.15 447.135V449.215L228.055 449.041V447.135H231.342V448.867L229.088 450.087L228.914 451.818L231.342 454.072L232.898 456.836L243.983 455.629L246.237 456.152L250.733 455.803L252.127 457.011L254.718 457.534V459.266L256.797 459.787L258.354 459.266L261.132 461.519L262.688 463.424L264.07 462.553V458.22L260.609 454.932L253.859 450.597L246.923 449.215L247.969 446.962L250.571 447.135L250.397 445.405L249.351 443.848L250.049 442.292H251.779L253.162 444.719L254.033 443.848L253.335 441.593L249.874 438.655L247.794 434.671L245.365 434.321L245.018 426.525L248.492 426.351L250.907 428.43L253.51 430.162L255.241 433.287L256.276 433.113L255.59 431.034L256.276 429.825H257.67L258.877 431.893V433.637L260.434 432.764L260.26 430.162L257.67 427.571L260.783 427.92L261.991 426.7L257.495 425.318L255.938 423.586L258.181 423.413L258.528 422.54L262.165 422.029L264.07 419.776H265.64L267.707 420.124L270.484 418.73L272.389 417.87L279.139 418.044L280.533 419.949L282.265 421.158V422.54L287.284 422.029L284.345 424.969V427.397L285.901 428.43L283.996 430.162L284.345 437.433H287.284L288.492 435.528L291.967 434.321V436.575L290.223 438.48L289.886 439.514L291.967 440.385V442.988L294.207 444.022V445.056L292.477 446.624L292.65 448.867L294.207 450.087L292.65 451.12L291.094 448.181H288.666L289.363 450.772L288.318 453.723L288.84 454.932L291.967 455.106L294.207 453.549L296.113 455.454L299.238 455.803V459.439L297.509 460.299L299.238 462.204L300.796 464.458L303.56 464.632L304.258 466.364H301.319V468.444L302.702 469.478H306.163L307.545 467.746L311.008 467.061H312.738L309.624 469.478L310.496 470.349L310.149 471.731L310.672 472.602H312.738L313.96 470.697L315.689 468.094L316.549 469.14V470.522L317.944 470.697L319.5 471.383L320.882 468.966L322.264 470.872V473.636L324.345 474.682H329.887V475.89H331.793L332.839 473.462L335.254 471.207V472.428L337.509 472.079V462.378L343.747 461.694L347.907 463.424L352.577 463.076L356.561 467.571L362.801 467.92L371.456 462.727V460.473L372.839 461.344L373.884 460.996V458.568L378.393 451.993L387.571 453.027L389.812 450.087L388.081 448.867L390.685 448.008L391.892 445.928L393.623 446.451V449.39L392.067 451.12L390.51 454.756L394.669 457.359V459.439L397.434 458.568L398.306 454.245L399.165 451.993V450.261L396.749 448.181L397.956 444.545L403.848 444.719V445.928L406.786 445.23L414.234 438.655L418.742 438.829L420.124 439.688L424.981 439.514L429.825 434.844L438.144 427.745L444.545 425.84L450.436 421.506L452.167 418.904L454.072 418.73L455.467 420.982L456.676 419.949L458.405 416.575L461.345 415.267L462.914 414.06H468.63L471.395 410.946L473.474 411.108V412.851L474.508 414.756L475.555 414.408L476.238 411.456L477.46 411.108V409.724L476.588 407.995L474.333 406.786L472.428 404.184L468.63 402.976V400.547L468.792 398.466L470.186 397.26L469.49 396.039L467.758 395.704L466.725 393.1L464.98 390.672L469.839 389.812L471.744 391.195L475.205 392.577L477.46 393.449L479.539 396.214L482.827 399.339L487.161 401.42L493.388 402.802L494.607 401.593L493.735 400.024L490.971 396.737L490.274 393.276L491.307 390.845V385.13L494.607 382.539L498.594 382.888L499.976 384.619V388.43L500.834 391.368L503.96 393.1L505.169 392.403L503.612 389.987L503.96 386.002L505.169 381.668L503.612 375.429L503.786 372.141L506.725 369.887L504.646 368.679L502.229 367.982L498.419 366.076L493.562 361.58L490.797 356.038C490.797 356.038 487.161 347.72 486.986 347.197C486.813 346.686 485.255 338.367 485.255 338.367L489.241 329.887L497.721 325.728L500.66 324.171L502.055 314.295L502.565 301.829L508.979 299.053L511.582 296.287L516.95 300.783L518.668 301.306V29.2124L436.233 1.33032L424.991 9.46069L411.396 3.62158L384.206 6.49746H366.166L359.368 1.33032Z" fill="#4D5460"/>
<path d="M221.326 198.92L219.235 198.135L215.052 201.796L212.176 208.593L211.13 217.482L212.176 220.358H214.267L216.882 216.436L221.065 215.652L232.83 214.868L235.706 216.698L238.059 216.175L240.673 212.776L241.719 213.822L242.503 216.698H250.869L254.007 222.972L255.314 223.757L258.974 216.959L259.758 218.005L262.896 218.789L263.419 216.436L264.203 215.129L266.294 211.469V205.979L262.111 202.318L261.85 197.874L259.758 197.612L256.621 193.952L255.314 194.998L249.039 193.952L244.856 191.599L240.673 190.815L238.059 193.168L235.183 193.952L234.398 204.933L231.784 207.024L227.339 205.979L221.326 198.92Z" fill="#2F3642"/>
<path fill-rule="evenodd" clip-rule="evenodd" d="M415.84 379.203L412.079 379.587L411.419 378.417L408.692 377.384L402.204 382.714L397.011 384.657L395.839 383.486H391.805L388.045 384.657L384.67 385.042L384.147 383.624L380.51 383.224V385.042L377.645 386.351L375.18 382.315L372.976 381.929L370.896 383.486L365.441 382.577L363.885 380.112H361.804L359.6 382.315L347.77 384.781L331.929 397.322V399.078L328.802 403.362L323.486 404.657L322.701 403.623L321.144 402.329L318.417 405.703H304.258L300.559 402.976L300.31 402.441L300.559 402.279L300.235 402.291L299.326 400.373L296.723 399.078L295.69 395.704H292.7V393.486L297.37 391.021V388.94L295.69 387.521L295.814 385.18L297.509 382.452L299.974 382.714L301.393 381.805L302.053 375.566L301.007 372.962L299.575 369.202L300.36 365.428L299.575 358.293L301.655 357.895L302.825 360.621L301.916 362.702L302.315 365.428L303.609 365.69L303.735 363.872L304.904 361.792L308.018 361.281L308.28 357.383L307.371 353.224L306.076 351.268L306.201 349.45L305.292 346.599L306.598 347.633L308.678 348.417L311.917 345.952L313.485 342.439L312.826 341.269L310.235 340.882L308.678 339.587L310.757 338.804L311.145 339.974L314.257 339.837L314.133 338.542L316.338 334.258L320.498 330.883L325.814 330.098L327.646 331.144L327.384 332.565L324.781 333.211L324.395 334.258L327.123 334.644L325.565 335.814L325.69 337.248L335.428 336.986L336.337 335.167L339.85 334.383L341.282 335.292L343.624 335.69L343.871 337.109L337.122 343.087L337.77 346.599L346.35 348.679L347.645 352.315L346.861 354.259L347.259 356.86L352.838 357.383L354.395 354.656L355.828 350.099H360.758C360.758 350.099 360.896 349.589 360.634 348.804C360.372 348.031 363.748 343.734 363.748 343.734H371.544L373.623 342.564L374.145 340.882L371.929 340.62L372.976 338.019L374.732 337.433L375.441 339.587L387.782 345.814H393.113L400.648 348.679L404.669 354.259H414.545L420 356.598L420.124 360.111L423.897 362.44L424.932 365.567L424.021 370.883L415.84 379.203ZM359.368 1.26855L337.682 9.46065L335.603 19.8595L331.444 24.0068L331.107 30.9431L334.568 34.4056L333.187 39.5988L326.251 39.2502L317.944 34.7542V30.2458L321.754 27.1332L322.091 22.6248L313.436 20.1956L309.624 23.6706L303.735 23.322L304.781 25.7499L308.928 27.4818L311.705 34.7542L318.977 44.4546L327.297 53.4589L325.565 56.9214L316.212 53.1103L310.672 52.4131L308.242 58.3035L309.277 62.1134L304.431 67.3066L306.512 72.1636L315.516 80.4707L314.818 83.5958L311.356 80.4707L304.781 83.5958L300.621 83.2484L296.113 86.0125L293.349 80.1345L290.223 83.2484L294.034 90.8695L299.575 90.5196L302.003 91.2169L300.271 96.4113L289.189 97.1085L286.413 94.3308L283.299 95.0293L280.533 91.5667L278.106 85.6763L275.328 84.9791L277.756 78.054L275.678 74.9289L263.212 70.7816L254.892 63.8453L259.052 62.4632L262.165 65.9245L270.484 66.2732L274.294 68.0038L289.189 66.9704L293.697 68.0038L302.003 58.6521L302.352 52.0769L299.238 43.41L290.92 38.2168L279.488 37.1697L269.439 31.2917L258.019 32.6737L253.162 35.439L247.969 34.4056L246.237 30.5945L250.049 29.2124L244.157 28.5152L241.568 30.1836L239.313 31.6279L230.995 30.5945L229.961 28.1666L235.502 27.4818L238.964 23.6706L237.234 21.9387L232.725 20.5443L230.645 19.5109L226.835 20.5443L227.182 24.3554H223.022L224.407 20.8941L224.754 18.1288L220.944 18.465V21.9387L219.214 25.0527L218.528 28.8638L217.482 21.9387L215.751 24.3554L214.718 28.1666L213.149 32.6737L210.907 30.9431L211.244 26.7833L213.149 24.3554V22.2762H208.13L208.479 25.7499L206.747 28.8638L203.97 29.5611L204.319 32.6737L194.617 32.3264L194.966 34.4056L197.047 36.1363L196.012 38.5641L193.235 38.2168L191.156 43.7573L190.471 38.5641L187.694 38.914L188.391 43.41L185.963 39.9474L183.884 42.3753L185.614 45.8378L182.502 45.1406L178.342 49.9976L173.497 56.5728L177.308 59.0007L173.149 59.3493L172.8 61.766L172.45 63.8453L170.371 63.1605L167.257 68.3537L168.64 71.1177L164.829 70.4329L161.715 72.5135L156.522 82.8986L150.981 91.5667L153.746 93.2974L151.666 96.0627L151.318 99.524L148.901 100.57L144.045 108.528L134.344 118.926L137.12 121.355L142.663 119.623L142.313 122.388L137.12 124.816L132.264 122.039L130.196 122.737L130.882 127.245L127.594 123.77L122.911 126.198H117.37L119.1 128.976L116.336 130.358V132.437L118.067 133.821L112.874 133.123L112.525 138.328L109.411 137.98L107.68 139.014L103.173 136.933L101.441 140.06L107.68 141.79L106.286 143.871L101.79 143.174L101.093 144.904L99.0135 147.681L103.173 150.795L107.68 151.828L110.096 148.017L110.794 151.492H114.954L117.033 145.95L118.067 152.525L112.176 154.605L111.49 157.718L108.017 153.907L99.0135 154.256L98.6649 158.764L104.207 156.685L98.3274 163.26L100.396 166.037L107.333 159.798L108.366 161.877L102.475 168.117L104.554 169.848L99.0135 172.613L99.7095 175.39L103.173 173.658L103.521 175.738L98.6649 184.045L103.521 189.586L105.936 189.936V192.015L108.017 192.712L110.446 192.015L109.748 194.094L111.49 194.792L114.604 191.667L119.1 190.283L120.496 187.507L122.575 187.855L122.911 185.44L127.594 181.629L131.927 180.932L132.264 176.772L130.532 173.658L133.31 174.693L134.344 171.579L135.738 178.851L138.852 180.932L137.543 188.017L137.531 188.03L137.12 190.283L139.199 190.981L141.28 193.061L141.628 198.254L142.313 200.333L143.01 207.259L148.552 216.959L147.17 219.039L146.473 223.534L147.444 226.2L149.238 231.156L154.793 231.854L157.555 233.236L159.636 230.808L159.287 226.66L162.401 221.803L166.908 222.152H170.371L172.8 214.182L176.959 206.225L176.261 200.333L174.182 197.906L175.913 196.175L176.261 193.397L174.531 190.283L175.228 188.204L180.071 186.473L181.803 183.011L184.581 184.743L185.963 182.662L187.694 180.234L181.106 179.898L178.342 182.662L176.934 179.238L174.056 177.88L174.904 176.025L179.299 175.004L181.84 176.361L186.735 177.544L189.948 174.331L189.45 170.271L188.092 169.761L188.266 166.051L182.002 163.509L179.475 167.059L176.772 169.761L174.232 168.927L174.742 166.723L178.627 164.866L180.147 161.816L179.137 156.411L178.116 148.639L180.482 148.291L180.147 143.733L178.789 136.796L180.658 136.971L181.84 135.788L182.177 132.912L184.369 133.085L185.725 131.217L187.42 126.659L190.123 125.812L191.978 122.936L193.671 123.111L199.076 117.021L202.289 110.769L204.157 110.259L203.647 107.382L200.097 106.884L200.944 104.68L202.974 102.152L202.626 100.122L201.616 98.4283L202.126 96.0627L204.493 95.0542L207.369 89.9718L212.102 90.308L214.805 89.1252L215.813 89.8112L219.027 88.9633L225.626 95.0542L226.125 102.314L223.423 102.152L217.508 113.809L209.736 125.14L205.502 126.149L205.676 128.354L204.991 129.698L203.309 131.566L203.647 135.614L205.34 137.817L204.991 141.193L207.196 143.733L207.707 146.61L207.022 150.322L208.042 159.798L216.15 164.356H218.865L219.537 167.569L221.056 168.927L223.423 168.08L227.818 166.897L231.542 162.5L233.398 164.02L236.772 159.96L239.152 160.471L240.159 158.777L243.535 157.432L245.402 156.075L249.625 155.901L253.51 154.555L255.54 152.189L258.243 152.687L257.059 154.892L257.233 156.584L265.514 156.237L267.545 159.449L266.362 160.471L262.302 160.808L259.936 164.692L258.081 166.211V168.416L255.714 169.425L253.349 171.118L247.93 170.782C247.93 170.782 247.595 169.088 247.096 169.088C246.585 169.088 241.854 169.599 241.854 169.599L241.007 170.271L239.649 168.416L238.802 169.599L238.466 171.454H233.909L232.725 173.149L231.206 172.812L229.672 174.157L228.828 176.523L225.963 177.544V181.766L229.339 183.285L227.308 184.817L229.001 187.183L231.368 189.374L234.244 188.03L235.253 193.771L234.406 204.929L231.877 206.959L227.308 206.112L224.78 203.236L221.393 198.839L219.201 198.167L214.967 201.891L212.265 208.479L211.255 217.432L212.265 220.484L213.149 226.399L217.171 231.306L216.498 231.605H216.486L215.652 231.978L215.315 235.354L212.439 237.021L210.745 234.68L209.051 235.017L208.552 237.021H205.34L204.656 240.085L202.126 243.473L197.893 244.83L193.335 243.809L192.999 241.442L194.518 241.269L194.854 239.076L192.663 238.23L185.725 239.587L178.789 241.952L173.721 247.695L164.593 249.388L159.686 254.295L155.465 253.448L154.617 250.235L151.067 247.695L150.732 246.013L153.945 245.84L154.617 243.809L152.936 241.779L150.06 243.473L148.702 246.013L143.969 246.512L145.489 245.166L146.51 244.481L145.153 243.473L144.867 243.709L141.429 246.512L138.391 247.022L135.85 249.898L134.169 250.06L131.293 251.592L129.599 249.724L130.445 247.359L132.3 247.195L133.659 244.992L130.445 244.145L126.385 244.481L124.195 242.452L125.713 240.77L124.53 238.404L122.837 237.021L122.675 235.017L119.797 234.68L122.164 231.468L123.159 230.135L123.683 229.437L123.173 226.399L125.202 225.552L125.713 223.696L128.416 223.36L129.599 220.148L132.3 219.637C132.3 219.637 133.483 220.148 133.659 219.637C133.833 219.125 134.331 216.249 134.331 216.249L130.283 214.905L127.594 215.241L129.101 210.334L131.293 207.295L131.118 202.725L130.445 200.533L126.561 202.227L122.837 207.12L114.892 207.295L113.709 212.363L111.516 219.125L112.363 225.552L115.577 229.275L116.075 234.169L115.227 235.863L115.401 238.068L116.921 241.616L114.218 242.452L114.892 244.145L116.585 246.013L115.912 248.205L116.585 249.898L112.363 250.396L111.678 254.295L108.813 255.814L108.466 251.754L101.877 252.264L101.205 253.61L102.551 255.814L102.051 256.66L100.021 256.486L98.503 253.959L93.9324 254.631L87.5065 255.478L86.4968 257.669L87.3447 260.546L87.6796 263.76L84.9778 264.943L85.1397 267.308L86.3238 268.155L82.774 268.491L82.1017 263.422L83.2845 261.729L83.109 259.027L80.5815 260.882L79.05 268.491L73.8208 272.887L75.3385 274.632H81.2538L81.4294 276.773L70.7678 276.437L70.9434 278.13L72.4624 279.313L67.0576 278.977L62.6625 279.139L61.1173 279.824L59.6095 280.496L52.0134 281.344L48.2906 288.442L48.6268 291.144L43.0476 293.847L34.9397 296.387L35.7739 298.242L38.3151 299.264L37.3066 300.609H28.5139L21.2415 295.876L22.4243 294.357L22.25 292.327L16.8451 291.99L16.6708 299.426L18.2035 306.86L15.488 307.209L14.4795 305.678C14.4795 305.678 13.8072 305.516 13.2967 305.516H8.0537L4.84018 300.098L-0.738959 300.447L-1.41131 301.792L-4.78669 300.945L-11.3868 301.281L-12.9058 302.813L-11.0506 304.669L-9.69226 305.341L-10.0284 306.524L-8.34761 308.043L-11.0506 308.728L-10.2028 312.44L-6.31814 312.103L0.283222 317.346L3.49552 317.857L3.32119 319.713L5.86115 320.225L5.68681 322.925L11.1041 323.934L10.7555 324.955L7.89183 325.802L8.0537 328.505H5.35066L7.71754 330.696L9.23653 335.267L14.3052 338.642L13.969 341.854L12.6244 345.403L15.8366 349.301L15.6623 353.697L13.8072 352.851L12.45 350.135L11.266 352.501L9.23653 358.928L11.4403 361.469L10.5936 362.315H8.38989L7.89183 366.375L5.86115 371.107L0.120139 376.825L-6.46754 376.126L-16.6796 371.618H-22.3957L-36.2558 365.567L-40.4156 362.963L-42.3205 364.52L-50.1035 360.883H-52.5326L-56.3425 357.247H-61.0252L-63.4419 359.675V361.407L-68.2977 360.535V359.152L-70.3782 359.502L-71.2373 360.198L-74.3636 361.407V362.615L-72.968 365.217L-72.6193 369.202L-71.7602 373.698L-73.3166 376.825L-74.3636 379.077V389.812L-74.7123 390.473L-80.416 401.244L-85.7822 409.9L-90.2918 411.805L-90.9903 416.139L-92.3711 418.392L-90.4649 420.635L-89.4315 423.761H-85.0986L-87.0036 428.954L-89.0829 432.764L-89.5946 437.783L-92.3711 441.083V443.151H-87.8627L-85.0986 446.276H-72.7936L-68.1234 448.356L-66.0441 453.2L-65.0107 459.949L-62.5828 463.935L-57.5639 465.503L-52.8812 461.344L-47.8624 461.519L-44.5629 459.949H-37.4635L-35.5586 462.03L-30.0168 461.855L-28.1118 464.632H-23.7777L-22.2214 463.075L-19.979 463.251L-14.0886 456.313L-9.75451 455.106H-4.90995L-3.51548 451.818L2.37493 445.405L6.87091 442.814V440.037L4.1056 435.366L3.58264 431.73L14.492 421.681L19.5108 415.442L21.2539 412.155L34.2425 411.369L35.9744 408.866L42.0391 406.437L45.3261 404.881V400.198L47.2323 399.339L46.7704 397.608L46.3595 396.038L47.2323 392.403L44.9775 390.672L47.2323 387.035L52.7741 386.525L55.3639 382.714L60.2209 384.096L62.6487 386.351L67.6676 386.525L70.0955 388.43L73.3837 388.94L74.5927 391.021L81.1804 390.672L89.6605 381.668L92.2627 381.145L93.1218 382.539L97.6315 382.191L100.396 377.508L106.112 375.093L112.176 379.414L119.1 382.714V392.403L127.594 401.593V404.707H130.882L132.612 408.518L135.564 408.866L141.28 416.487L145.427 419.776L153.398 420.635L157.382 425.666L159.113 425.84L159.81 427.745L164.306 428.083L165.352 429.988V434.321L168.64 434.844L169.686 435.528L171.068 435.018L172.973 434.67L174.006 441.419L178.69 448.867V452.504L175.402 454.245L174.879 455.977L175.564 458.058L173.149 460.125L173.659 462.901L176.784 463.598L180.595 460.125L183.535 456.488L184.755 451.469L187.519 450.087L188.391 444.022L183.185 440.037L182.152 435.528L186.137 429.825L188.391 429.127L191.505 431.207L195.839 432.416L198.254 435.366L200.159 438.306L202.064 435.704V433.113L197.744 427.92L192.028 425.142L187.345 423.063L180.247 418.904L176.261 417.521L172.8 417.348L174.705 415.442L177.47 412.678L177.133 411.369H171.591L167.78 412.328L165.003 411.369L161.891 407.309L158.59 405.567L154.617 398.642L152.886 391.544L145.776 384.956L139.375 381.494L137.643 376.649L138.852 372.141L140.757 370.236L140.06 368.505L138.503 367.123L139.885 363.486L145.601 362.789L147.332 360.36H152.712L151.865 363.748L151.491 365.217L153.746 369.377L154.27 371.966L157.555 370.584L158.59 366.947L161.019 366.424L165.003 369.551L166.051 371.966L166.212 377.858L170.371 379.763L169.163 382.191L170.371 384.619L175.402 386.351L176.61 389.639L184.058 391.021L187.345 392.751L189.189 394.694L190.633 396.214L193.584 397.608L195.14 399.688L198.254 400.373L200.335 402.453L202.064 405.914L206.574 406.961L209.425 410.124L210.558 411.369H213.498L210.558 420.299L211.082 425.492L210.558 430.684L212.289 432.416L217.832 434.67L218.865 438.48L220.944 439.862L221.816 440.835L225.278 444.719L226.15 447.135V449.215L228.055 449.041V447.135H231.342V448.867L229.088 450.087L228.914 451.818L231.342 454.072L232.898 456.836L243.983 455.629L246.237 456.152L250.733 455.803L252.127 457.011L254.718 457.534V459.266L256.797 459.787L258.354 459.266L261.132 461.519L262.688 463.424L264.07 462.553V458.22L260.609 454.931L253.859 450.597L246.923 449.215L247.969 446.962L250.571 447.135L250.397 445.405L249.351 443.848L250.049 442.292H251.779L253.162 444.719L254.033 443.848L253.335 441.593L249.874 438.655L247.794 434.67L245.365 434.321L245.018 426.525L248.492 426.351L250.907 428.43L253.51 430.162L255.241 433.287L256.276 433.113L255.59 431.034L256.276 429.825H257.67L258.877 431.893V433.637L260.434 432.764L260.26 430.162L257.67 427.571L260.783 427.92L261.991 426.7L257.495 425.317L255.938 423.586L258.181 423.413L258.528 422.54L262.165 422.029L264.07 419.776H265.64L267.707 420.124L270.484 418.73L272.389 417.87L279.139 418.044L280.533 419.949L282.265 421.158V422.54L287.284 422.029L284.345 424.969V427.397L285.901 428.43L283.996 430.162L284.345 437.433H287.284L288.492 435.528L291.967 434.321V436.575L290.223 438.48L289.886 439.514L291.967 440.385V442.988L294.207 444.022V445.056L292.477 446.624L292.65 448.867L294.207 450.087L292.65 451.12L291.094 448.181H288.666L289.363 450.772L288.318 453.722L288.84 454.931L291.967 455.106L294.207 453.549L296.113 455.454L299.238 455.803V459.439L297.509 460.299L299.238 462.204L300.796 464.458L303.56 464.632L304.258 466.364H301.319V468.444L302.702 469.478H306.163L307.545 467.746L311.008 467.061H312.738L309.624 469.478L310.496 470.349L310.149 471.731L310.672 472.601H312.738L313.96 470.697L315.689 468.094L316.549 469.14V470.522L317.944 470.697L319.5 471.383L320.882 468.966L322.264 470.872V473.636L324.345 474.682H329.887V475.89H331.793L332.839 473.462L335.254 471.207V472.428L337.509 472.079V462.378L343.747 461.693L347.907 463.424L352.577 463.075L356.561 467.571L362.801 467.92L371.456 462.727V460.473L372.839 461.344L373.884 460.996V458.568L378.393 451.993L387.571 453.027L389.812 450.087L388.081 448.867L390.685 448.008L391.892 445.928L393.623 446.451V449.39L392.067 451.12L390.51 454.756L394.669 457.359V459.439L397.434 458.568L398.306 454.245L399.165 451.993V450.261L396.749 448.181L397.956 444.545L403.848 444.719V445.928L406.786 445.23L414.234 438.655L418.742 438.829L420.124 439.688L424.981 439.514L429.825 434.844L438.144 427.745L444.545 425.84L450.436 421.506L452.167 418.904L454.072 418.73L455.467 420.982L456.676 419.949L458.405 416.575L461.345 415.267L462.914 414.06H468.63L471.395 410.946L473.474 411.108V412.851L474.508 414.756L475.555 414.408L476.238 411.456L477.46 411.108V409.724L476.588 407.995L474.333 406.786L472.428 404.184L468.63 402.976V400.547L468.792 398.466L470.186 397.26L469.49 396.038L467.758 395.704L466.725 393.1L464.98 390.672L469.839 389.812L471.744 391.195L475.205 392.577L477.46 393.449L479.539 396.214L482.827 399.339L487.161 401.42L493.388 402.802L494.607 401.593L493.735 400.024L490.971 396.737L490.274 393.276L491.308 390.845V385.13L494.607 382.539L498.594 382.888L499.976 384.619V388.43L500.834 391.368L503.96 393.1L505.169 392.403L503.613 389.987L503.96 386.002L505.169 381.668L503.613 375.429L503.786 372.141L506.725 369.887L504.646 368.679L502.229 367.982L498.419 366.076L493.562 361.58L490.797 356.038C490.797 356.038 487.161 347.72 486.986 347.197C486.813 346.686 485.255 338.367 485.255 338.367L489.241 329.887L497.721 325.728L500.66 324.171L502.055 314.295L502.565 301.829L508.979 299.053L511.582 296.287L516.95 300.783L518.668 301.306L518.065 28.9816L436.494 1.26855L424.991 9.63474L411.396 3.88299L384.728 6.49742H366.166L359.368 1.26855Z" stroke="#5E6673" stroke-miterlimit="2"/>
<path d="M108.473 396.124V397.983L105.429 398.828L102.556 400.519H100.527V405.083L102.556 406.942L100.527 408.294L102.048 412.352L104.5 414.548L105.598 415.734L108.473 413.704V408.97L110.332 407.788V403.054L108.98 399.504L110.332 396.8L108.473 396.124Z" fill="#4D5460"/>
<path fill-rule="evenodd" clip-rule="evenodd" d="M108.473 396.124V397.983L105.429 398.828L102.556 400.519H100.527V405.083L102.556 406.942L100.527 408.294L102.048 412.352L104.5 414.548L105.598 415.734L108.473 413.704V408.97L110.332 407.788V403.054L108.98 399.504L110.332 396.8L108.473 396.124Z" stroke="#5E6673" stroke-miterlimit="2"/>
<path d="M103.233 419.448L98.3297 422.829H95.4561V424.519L96.9775 427.563C96.9775 427.563 96.9775 433.817 96.8082 434.324C96.6401 434.831 97.8229 437.875 97.8229 437.875L95.4561 439.564L96.1321 441.763L95.4561 444.635L97.6536 448.356H102.218L103.233 444.805L105.429 444.635L107.121 446.328L109.317 443.791V429.59L110.332 427.901V424.35L107.797 420.294L103.233 419.448Z" fill="#4D5460"/>
<path fill-rule="evenodd" clip-rule="evenodd" d="M103.233 419.448L98.3297 422.829H95.4561V424.519L96.9775 427.563C96.9775 427.563 96.9775 433.817 96.8082 434.324C96.6401 434.831 97.8229 437.875 97.8229 437.875L95.4561 439.564L96.1321 441.763L95.4561 444.635L97.6536 448.356H102.218L103.233 444.805L105.429 444.635L107.121 446.328L109.317 443.791V429.59L110.332 427.901V424.35L107.797 420.294L103.233 419.448Z" stroke="#5E6673" stroke-miterlimit="2"/>
<path d="M272.958 431.112L271.269 433.14L272.958 433.985L274.819 432.547L272.958 431.112Z" fill="#4D5460"/>
<path fill-rule="evenodd" clip-rule="evenodd" d="M272.958 431.112L271.269 433.14L272.958 433.985L274.819 432.547L272.958 431.112Z" stroke="#5E6673" stroke-miterlimit="2"/>
<path d="M266.535 421.818L264.505 422.664L266.535 423.677H267.548L268.394 422.748L266.535 421.818Z" fill="#4D5460"/>
<path fill-rule="evenodd" clip-rule="evenodd" d="M266.535 421.818L264.505 422.664L266.535 423.677H267.548L268.394 422.748L266.535 421.818Z" stroke="#5E6673" stroke-miterlimit="2"/>
<path fill-rule="evenodd" clip-rule="evenodd" d="M288.545 424.278L290.493 423.678L293.48 420.901C293.48 420.901 294.909 421.569 294.909 421.819V423.678L299.327 422.588L298.417 420.251L297.768 419.472L299.327 418.692H301.274L300.625 420.641L301.274 421.485L304.783 418.692H312.056V417.004H308.679L309.718 414.925L313.095 413.885V412.067L311.148 410.248L300.82 411.547L299.456 413.497L297.248 413.366L294.909 417.263L291.012 421.16L288.025 423.678L288.545 424.278Z" stroke="#5E6673" stroke-miterlimit="2"/>
<path d="M300.241 402.289L300.565 402.277L300.316 402.439L300.241 402.289Z" fill="#4D5460"/>
<path fill-rule="evenodd" clip-rule="evenodd" d="M300.241 402.289L300.565 402.277L300.316 402.439L300.241 402.289Z" stroke="#5E6673" stroke-miterlimit="2"/>
<path d="M129.933 227.746L127.595 229.044L126.427 229.953H125.517L124.478 231.122L125.129 233.721L127.595 234.89L130.973 235.93L132.661 234.24L133.311 232.552L131.233 230.733L132.532 230.213V228.394L129.933 227.746Z" fill="#4D5460"/>
<path fill-rule="evenodd" clip-rule="evenodd" d="M129.933 227.746L127.595 229.044L126.427 229.953H125.517L124.478 231.122L125.129 233.721L127.595 234.89L130.973 235.93L132.661 234.24L133.311 232.552L131.233 230.733L132.532 230.213V228.394L129.933 227.746Z" stroke="#5E6673" stroke-miterlimit="2"/>
<path d="M134.609 226.57L135.259 227.74L136.298 229.039L135.455 230.208V232.417L136.298 234.234C136.298 234.234 139.806 233.715 140.195 234.234C140.586 234.755 140.195 236.314 140.195 236.314L141.754 237.023H144.092V233.586L145.911 233.715V231.798L144.482 230.337L146.431 228.519V226.57L144.221 222.024L142.405 223.193L142.533 225.142L143.962 225.531L143.573 227.74H142.793L142.533 225.921L141.365 226.18L140.521 227.74L139.806 225.531L140.521 224.752L139.806 223.713L138.377 223.583L138.117 225.012L138.377 226.05L137.598 226.7L135.518 226.311L134.609 226.57Z" fill="#4D5460"/>
<path fill-rule="evenodd" clip-rule="evenodd" d="M134.609 226.57L135.259 227.74L136.298 229.039L135.455 230.208V232.417L136.298 234.234C136.298 234.234 139.806 233.715 140.195 234.234C140.586 234.755 140.195 236.314 140.195 236.314L141.754 237.023H144.092V233.586L145.911 233.715V231.798L144.482 230.337L146.431 228.519V226.57L144.221 222.024L142.405 223.193L142.533 225.142L143.962 225.531L143.573 227.74H142.793L142.533 225.921L141.365 226.18L140.521 227.74L139.806 225.531L140.521 224.752L139.806 223.713L138.377 223.583L138.117 225.012L138.377 226.05L137.598 226.7L135.518 226.311L134.609 226.57Z" stroke="#5E6673" stroke-miterlimit="2"/>
<path d="M162.797 234.358L162.148 235.917H163.707V237.016H166.045L165.006 234.877L162.797 234.358Z" fill="#4D5460"/>
<path fill-rule="evenodd" clip-rule="evenodd" d="M162.797 234.358L162.148 235.917H163.707V237.016H166.045L165.006 234.877L162.797 234.358Z" stroke="#5E6673" stroke-miterlimit="2"/>
<path d="M133.311 234.875L131.752 237.014L131.102 240.461H132.792L133.311 237.668L134.61 235.915L133.311 234.875Z" fill="#4D5460"/>
<path fill-rule="evenodd" clip-rule="evenodd" d="M133.311 234.875L131.752 237.014L131.102 240.461H132.792L133.311 237.668L134.61 235.915L133.311 234.875Z" stroke="#5E6673" stroke-miterlimit="2"/>
<path d="M135.13 237.674V240.466L138.508 241.636L140.521 240.466L139.546 237.674L137.208 238.778L135.13 237.674Z" fill="#4D5460"/>
<path fill-rule="evenodd" clip-rule="evenodd" d="M135.13 237.674V240.466L138.508 241.636L140.521 240.466L139.546 237.674L137.208 238.778L135.13 237.674Z" stroke="#5E6673" stroke-miterlimit="2"/>
<path d="M140.521 238.262C140.846 238.652 141.105 239.658 141.105 239.658H141.884V241.639H143.184L142.664 238.262H140.521Z" fill="#4D5460"/>
<path fill-rule="evenodd" clip-rule="evenodd" d="M140.521 238.262C140.846 238.652 141.105 239.658 141.105 239.658H141.884V241.639H143.184L142.664 238.262H140.521Z" stroke="#5E6673" stroke-miterlimit="2"/>
<path d="M178.126 206.695V211.111L175.528 216.048V219.036L176.827 217.867L178.646 212.865L180.205 210.332V206.695H178.126Z" fill="#4D5460"/>
<path fill-rule="evenodd" clip-rule="evenodd" d="M178.126 206.695V211.111L175.528 216.048V219.036L176.827 217.867L178.646 212.865L180.205 210.332V206.695H178.126Z" stroke="#5E6673" stroke-miterlimit="2"/>
<path d="M187.869 202.665V204.874L189.039 209.42C189.039 209.42 190.857 208.251 190.726 207.861C190.598 207.471 190.734 204.095 190.734 204.095L193.585 203.704V200.586L194.364 199.677L193.844 197.729H191.117L187.869 202.665Z" fill="#4D5460"/>
<path fill-rule="evenodd" clip-rule="evenodd" d="M187.869 202.665V204.874L189.039 209.42C189.039 209.42 190.857 208.251 190.726 207.861C190.598 207.471 190.734 204.095 190.734 204.095L193.585 203.704V200.586L194.364 199.677L193.844 197.729H191.117L187.869 202.665Z" stroke="#5E6673" stroke-miterlimit="2"/>
<path d="M215.665 182.138L216.704 183.178H218.004L218.783 184.737L220.992 183.438V182.138H221.901V180.19H218.783L217.614 181.359L215.665 182.138Z" fill="#4D5460"/>
<path fill-rule="evenodd" clip-rule="evenodd" d="M215.665 182.138L216.704 183.178H218.004L218.783 184.737L220.992 183.438V182.138H221.901V180.19H218.783L217.614 181.359L215.665 182.138Z" stroke="#5E6673" stroke-miterlimit="2"/>
<path d="M215.667 188.629C215.277 189.019 214.887 190.968 214.887 190.968H216.317V193.954H217.226V192.137L218.785 190.318L221.902 190.578V187.979H224.499L223.721 186.162H217.096L217.226 188.11L215.667 188.629Z" fill="#4D5460"/>
<path fill-rule="evenodd" clip-rule="evenodd" d="M215.667 188.629C215.277 189.019 214.887 190.968 214.887 190.968H216.317V193.954H217.226V192.137L218.785 190.318L221.902 190.578V187.979H224.499L223.721 186.162H217.096L217.226 188.11L215.667 188.629Z" stroke="#5E6673" stroke-miterlimit="2"/>
<path d="M88.4709 306.322L90.3572 307.881L91.3969 310.825L95.5541 311.865L99.018 313.251L101.961 314.289V318.621L98.3244 321.218L97.804 324.334L96.2452 327.972L96.4195 332.474L98.4975 334.033H110.332L113.046 336.113L117.03 335.073L120.148 338.538H122.226V334.901L124.823 334.727L127.595 337.151L130.368 337.844L135.13 334.901L141.852 334.381L144.569 336.286L146.994 335.766L146.301 330.396L145.608 327.626L151.15 326.413V322.43L153.749 321.218L148.552 315.848L141.852 309.439V304.763L138.508 301.126L137.826 298.875H140.521V300.434L143.184 298.875L151.671 295.93L151.844 293.851L157.213 292.64V289.176H158.771L162.062 293.505L165.007 291.513L163.794 284.152L161.889 282.42L161.196 267.005L158.944 264.927L159.291 261.809L161.024 259.212L159.694 254.285" stroke="#5E6673" stroke-miterlimit="2"/>
<path d="M115.323 335.521V341.137L119.107 343.734H121.358L122.917 345.293L120.147 348.931L119.12 349.798V351.875H116.163L115.323 351.009L113.218 351.875L110.331 349.104L109.408 353.262L106.637 356.898L104.384 353.954L102.893 349.279L101.614 348.411L99.3616 351.703V355.361H96.5913L93.6231 354.127L91.0483 355.361H89.1433L88.4697 353.781L86.7191 353.433V347.72L83.4272 347.545L81.8683 351.355L79.9634 350.836V344.602L90.0086 336.287L90.356 332.997L96.4182 332.476" stroke="#5E6673" stroke-miterlimit="2"/>
<path d="M122.917 345.293L128.46 344.688L132.791 342.523H138.159L139.372 343.909L140.41 346.68L146.819 349.625H151.495L150.111 353.605L151.495 356.899L152.708 360.362" stroke="#5E6673" stroke-miterlimit="2"/>
<path d="M151.864 363.745H155.135L158.078 362.267H161.543L163.967 365.039L168.471 365.905V360.362L173.147 358.978V356.898L170.376 354.301L173.147 352.914L174.879 353.605L177.476 350.663L179.209 348.411L177.997 345.64L177.065 345.298L175.4 344.688L172.454 346.506L168.471 346.68L165.007 347.72L161.715 349.45L161.543 351.443H156L155.654 350.49L151.081 350.82" stroke="#5E6673" stroke-miterlimit="2"/>
<path d="M153.75 321.22L156.52 322.086H162.929L166.566 316.544C166.566 316.544 168.817 316.371 169.337 316.544C169.857 316.718 173.494 319.278 173.494 319.278L174.36 320.18L177.477 320.7L180.594 319.278L182.501 320.873V326.07L185.271 330.226V333.517H181.634L178.343 335.595L179.21 337.674L180.248 338.541L178.343 339.58V342.524L177.066 345.299" stroke="#5E6673" stroke-miterlimit="2"/>
<path d="M165.007 291.52L166.566 289.876L167.951 290.699L169.51 292.993H173.841L176.957 295.938L176.092 297.67L179.209 300.267L183.365 299.056L188.042 299.575L189.774 302.692H193.064L195.663 307.196L200.166 308.755L198.434 310.485H196.356L195.317 312.044L193.239 313.084L192.372 317.588H191.161L188.562 320.878H183.54L182.5 322.264" stroke="#5E6673" stroke-miterlimit="2"/>
<path d="M185.271 330.224L187.35 330.881L190.122 333.514L195.491 332.475H198.954L200.167 330.224L203.11 329.011L206.228 327.106H212.463L216.101 323.123L218.354 321.218H222.856L226.666 322.257H230.995V317.061L233.595 312.731L231.17 311.865L228.053 310.478L225.454 308.748H221.124L218.526 310.826L216.795 309.786L213.152 310.653L211.079 312.037L208.134 311.692L205.537 308.748H200.167" stroke="#5E6673" stroke-miterlimit="2"/>
<path d="M202.127 243.474L209.434 245.018L219.047 244.246L223.724 241.64L228.919 242.419L227.186 238.263L227.707 235.696L226.495 234.366L225.108 232.374L216.491 231.604" stroke="#5E6673" stroke-miterlimit="2"/>
<path d="M228.916 242.415L234.283 246.918L238.095 256.444V264.065L234.802 269.088L234.457 271.166L238.095 272.552V277.747L240.173 283.81L243.464 287.273L244.85 290.912V294.202L238.095 299.052L234.978 306.067L234.802 311.521L233.592 312.734" stroke="#5E6673" stroke-miterlimit="2"/>
<path d="M179.21 348.41L180.248 351.442H183.193L185.271 355.36L188.215 356.55L189.774 358.283L193.065 359.149H201.379L204.15 355.36H206.921V353.78H210.385L213.152 352.048L215.522 352.567L217.141 353.78L219.392 352.221L223.375 351.442L227.532 342.522L230.65 337.499V332.304L233.594 329.705H236.017L237.577 326.762L234.805 323.989L230.995 322.257" stroke="#5E6673" stroke-miterlimit="2"/>
<path d="M212.267 220.478H214.195L216.965 216.261L221.122 215.568L232.726 214.876L235.671 216.781L238.269 216.261L240.52 212.862L241.56 213.663L242.598 216.67H250.913L253.856 223.016L255.415 223.709V229.078C255.415 229.078 253.683 229.251 253.337 229.77C252.991 230.291 252.991 234.361 252.991 234.361L250.913 235.691L249.527 238.307L251.953 239.469L250.393 242.414L241.56 246.398L238.269 245.012L237.403 246.398L234.284 246.917" stroke="#5E6673" stroke-miterlimit="2"/>
<path d="M235.262 193.777L238.099 193.06L240.697 190.809L244.854 191.674L249.011 193.969L255.418 194.965L257.671 192.887V190.073L255.418 186.176L256.977 184.746L256.285 180.199L256.977 176.952L253.34 174.528L256.632 173.315L258.083 168.418" stroke="#5E6673" stroke-miterlimit="2"/>
<path d="M256.498 193.968L259.922 197.735H262V202.412L266.157 205.876V211.592L263.387 216.441L262.868 218.692L259.75 218L258.882 216.96L258.083 218.692L256.498 221.291L255.418 223.716" stroke="#5E6673" stroke-miterlimit="2"/>
<path d="M238.097 277.747L244.852 273.245L251.954 271.338H263.212L269.273 273.072L270.658 274.629L277.067 273.591L279.665 271.338L285.728 270.473L289.71 273.245L294.733 272.897L299.063 269.606V263.89L302.527 260.947L306.858 258.349L305.819 254.885L302.527 250.035L302.181 246.225L303.74 243.627L305.991 245.013H308.589L311.014 242.414V238.307L309.109 237.019L306.684 238.307L301.662 236.006L299.756 232.369L295.773 231.599L294.041 225.786L289.017 214.356L285.207 211.585L280.011 212.862V215.568H277.587V212.224L274.814 211.585L273.257 212.862H270.138V211.585H266.155" stroke="#5E6673" stroke-miterlimit="2"/>
<path d="M306.86 258.352L317.945 254.022L322.967 252.29L329.722 257.139V263.894L331.973 265.28H339.941L342.885 268.572V272.208H346.696L348.947 270.302L358.127 269.437L360.033 267.532L361.938 268.051L367.305 273.075C367.305 273.075 370.078 274.286 370.251 273.075C370.423 271.861 370.251 270.302 370.251 270.302H373.369L374.926 271.342L376.658 269.957L381.855 270.65L387.051 273.613L388.61 277.75L390.342 279.483V281.907L386.359 283.639L391.554 289.355L390.689 296.283L379.739 306.251L380.864 313.241L373.369 316.812L379.739 330.502L374.926 337.267" stroke="#5E6673" stroke-miterlimit="2"/>
<path d="M237.575 326.763H246.582L253.337 325.03L257.667 326.763L262.343 325.895L263.383 323.644H267.712L269.791 318.623L281.049 314.812L286.937 317.755C286.937 317.755 289.363 315.87 289.882 316.466C290.402 317.063 295.425 319.315 295.425 319.315L296.463 323.298L299.408 325.376L300.62 329.359L304.778 330.883L306.856 336.634V338.54H298.714L297.157 341.83L297.676 344.688L294.558 349.105L294.212 354.127L297.849 356.899L306.076 351.27" stroke="#5E6673" stroke-miterlimit="2"/>
<path d="M269.402 319.576L274.557 320.36L280.706 325.383L281.918 329.886L285.902 331.791L289.885 338.547L290.752 348.072L292.699 354.134H294.215" stroke="#5E6673" stroke-miterlimit="2"/>
<path d="M217.14 353.783L219.391 356.9H220.949L222.68 360.018V362.096L225.453 363.828H228.917V366.773H230.822V368.504H228.917V370.409H231.515L233.594 371.622L236.192 374.047H238.097V370.584L242.426 370.757V372.835C242.426 372.835 240.521 372.143 240.349 373.008L240.175 373.873L242.426 375.606V377.511L239.829 379.937L240.002 384.785L242.426 388.423C242.426 388.423 245.717 389.117 245.717 389.808C245.717 390.501 244.851 394.831 244.851 394.831H242.08L241.561 399.854L242.945 402.105L242.08 403.664L235.845 401.759L233.594 402.452L232.206 404.877L225.971 405.7L224.587 409.38L222.507 410.245L221.642 404.877L218.524 403.145L215.754 397.257L221.296 396.909L220.604 394.658L215.754 395.351L206.92 388.077L209.432 385.652L210.211 385.305L207.614 382.015H211.249L210.73 380.108L206.92 378.204V375.086L208.393 371.968V369.544L205.882 367.466L208.393 365.907V364.174L205.882 364.348L203.457 360.885V356.31" stroke="#5E6673" stroke-miterlimit="2"/>
<path d="M242.426 377.51L244.852 379.069V382.013H249.701L260.613 379.761L268.392 381.147L272.217 382.013L281.807 374.391L293.521 373.7L298.024 377.856L299.584 377.164L302.05 375.561" stroke="#5E6673" stroke-miterlimit="2"/>
<path d="M287.774 402.579L283.478 405.705L280.539 407.137V410.251L278.198 413.19L272.22 412.853L267.202 410.251H262.869L255.595 414.236H248.323L248.273 414.099L245.719 406.964L242.082 403.662" stroke="#5E6673" stroke-miterlimit="2"/>
<path d="M287.775 402.573L289.37 401.417L291.935 402.474" fill="#4D5460"/>
<path d="M287.775 402.573L289.37 401.417L291.935 402.474" stroke="#5E6673" stroke-miterlimit="2"/>
<path d="M291.934 402.475L300.241 402.289L300.565 402.277L300.316 402.439" fill="#4D5460"/>
<path d="M291.934 402.475L300.241 402.289L300.565 402.277L300.316 402.439" stroke="#5E6673" stroke-miterlimit="2"/>
<path d="M283.478 405.703L285.13 410.248L283.478 411.981V415.964L282.266 421.16" fill="#4D5460"/>
<path d="M222.51 410.248V416.312L225.283 421.16L230.651 424.278L239.831 422.749L242.082 418.217L245.719 417.263L249.183 414.233" stroke="#5E6673" stroke-miterlimit="2"/>
<path d="M221.819 440.833L222.509 438.212L225.973 435.358L227.014 430.161L228.919 428.257L229.617 423.673" fill="#4D5460"/>
<path d="M221.819 440.833L222.509 438.212L225.973 435.358L227.014 430.161L228.919 428.257L229.617 423.673" stroke="#5E6673" stroke-miterlimit="2"/>
<path d="M209.434 410.125L210.905 407.823L210.169 404.705L213.153 400.202H214.543V402.454L217.939 401.895" stroke="#5E6673" stroke-miterlimit="2"/>
<path d="M189.197 394.7L186.484 389.64L181.115 384.27L179.21 382.019V378.729L177.477 376.303L175.4 374.917L173.148 372.147V366.604L174.88 365.218L176.958 367.296L178.171 369.549L179.902 369.376L180.249 367.296L180.423 365.912H184.233L187.004 367.815L193.412 367.99L194.799 369.376L196.183 366.95L197.743 367.471L201.033 367.99L203.458 369.376V370.588L206.057 370.242L207.283 368.63" stroke="#5E6673" stroke-miterlimit="2"/>
<path d="M241.568 30.1851L240.003 34.0622L235.26 37.1799L233.843 44.1074V50.6889L235.26 54.1526H241.568L244.159 60.0418V65.5849L242.427 69.0487L242.081 72.1663L246.67 77.7081L251.78 84.6369L248.662 86.0227L249.009 87.7533H250.74L251.78 90.1787H248.662L250.049 95.0283H251.78V97.7998H255.417V101.61L258.081 104.727V112.695L266.155 116.852L267.714 123.433L266.155 134.517L258.081 146.989L249.628 155.908" stroke="#5E6673" stroke-miterlimit="2"/>
<path d="M137.538 188.039L140.068 184.745L142.926 182.471V178.249L141.627 175.911L142.926 171.755L147.341 170.196L149.16 162.661L146.042 156.946L147.341 154.868H149.16L150.719 152.789V150.711L147.861 147.853L147.601 141.618L148.12 139.019L146.822 135.383L147.861 130.706L146.822 124.731L154.355 117.197H160.332L161.63 111.481L159.292 109.663L163.189 100.31V90.1779L167.866 88.3601V82.644L172.283 78.2265V68.6145L176.958 63.1586L180.336 65.4969L181.635 64.1983V58.7424L183.194 57.1835H191.119V48.8702L198.782 46.0115L200.861 47.8306L203.199 51.2084L208.135 51.9879V48.8702L210.213 48.3498L214.889 49.9086L216.967 48.0908V34.8408L224.501 31.4629L230.217 33.2819L233.844 37.4392L234.318 41.7907" stroke="#5E6673" stroke-miterlimit="2"/>
<path d="M23.4384 438.893H21.2409L20.0569 440.923L21.7477 441.599L23.4384 440.247V438.893Z" fill="#4D5460"/>
<path fill-rule="evenodd" clip-rule="evenodd" d="M23.4384 438.893H21.2409L20.0569 440.923L21.7477 441.599L23.4384 440.247V438.893Z" stroke="#5E6673" stroke-miterlimit="2"/>
<path d="M34.0901 432.47L37.9772 431.287L41.0214 429.258L42.0349 430.864V432.47L44.0643 433.907V436.021L40.6827 438.893L37.9772 436.189L37.3011 434.076L34.0901 433.907V432.47Z" fill="#4D5460"/>
<path fill-rule="evenodd" clip-rule="evenodd" d="M34.0901 432.47L37.9772 431.287L41.0214 429.258L42.0349 430.864V432.47L44.0643 433.907V436.021L40.6827 438.893L37.9772 436.189L37.3011 434.076L34.0901 433.907V432.47Z" stroke="#5E6673" stroke-miterlimit="2"/>
<path d="M49.9814 429.258V430.781L51.3336 432.47L52.0097 433.907L53.6992 432.977V430.781L49.9814 429.258Z" fill="#4D5460"/>
<path fill-rule="evenodd" clip-rule="evenodd" d="M49.9814 429.258V430.781L51.3336 432.47L52.0097 433.907L53.6992 432.977V430.781L49.9814 429.258Z" stroke="#5E6673" stroke-miterlimit="2"/>
<path d="M138.565 463.907V467.12L146.34 470.161L151.073 473.543L156.989 476.755L159.019 477.431L161.554 480.981H166.963L168.824 477.77L167.81 474.895L166.626 469.824L170.514 463.062V459.343L167.641 460.526H163.246L161.047 462.893L155.3 462.725L152.426 464.077L149.89 463.401L149.214 461.372L144.819 460.865L143.297 461.879L141.437 461.542L138.565 463.907Z" fill="#4D5460"/>
<path fill-rule="evenodd" clip-rule="evenodd" d="M138.565 463.907V467.12L146.34 470.161L151.073 473.543L156.989 476.755L159.019 477.431L161.554 480.981H166.963L168.824 477.77L167.81 474.895L166.626 469.824L170.514 463.062V459.343L167.641 460.526H163.246L161.047 462.893L155.3 462.725L152.426 464.077L149.89 463.401L149.214 461.372L144.819 460.865L143.297 461.879L141.437 461.542L138.565 463.907Z" stroke="#5E6673" stroke-miterlimit="2"/>
<path d="M146.846 488.084L149.045 491.465L152.764 492.31L154.538 490.958L151.748 490.197L150.692 488.084H146.846Z" fill="#4D5460"/>
<path fill-rule="evenodd" clip-rule="evenodd" d="M146.846 488.084L149.045 491.465L152.764 492.31L154.538 490.958L151.748 490.197L150.692 488.084H146.846Z" stroke="#5E6673" stroke-miterlimit="2"/>
<path d="M224.948 456.809L223.426 459.344L226.975 460.865H228.667L226.975 458.837L224.948 456.809Z" fill="#4D5460"/>
<path fill-rule="evenodd" clip-rule="evenodd" d="M224.948 456.809L223.426 459.344L226.975 460.865H228.667L226.975 458.837L224.948 456.809Z" stroke="#5E6673" stroke-miterlimit="2"/>
<path d="M241.346 456.809L237.797 459.344L234.416 460.189L233.57 464.246L237.458 469.149L238.81 470.162L238.473 473.544V475.888L241.346 478.108V474.727L243.375 474.051L246.419 475.888L246.926 480.982L248.785 481.996L249.63 476.588L250.475 475.888L253.18 479.123L255.378 480.982V477.771L254.025 471.516L250.138 467.459L252.335 467.627L256.9 469.403L258.252 466.951L253.856 462.725L253.518 459.344H247.263L243.207 456.809H241.346Z" fill="#4D5460"/>
<path fill-rule="evenodd" clip-rule="evenodd" d="M241.346 456.809L237.797 459.344L234.416 460.189L233.57 464.246L237.458 469.149L238.81 470.162L238.473 473.544V475.888L241.346 478.108V474.727L243.375 474.051L246.419 475.888L246.926 480.982L248.785 481.996L249.63 476.588L250.475 475.888L253.18 479.123L255.378 480.982V477.771L254.025 471.516L250.138 467.459L252.335 467.627L256.9 469.403L258.252 466.951L253.856 462.725L253.518 459.344H247.263L243.207 456.809H241.346Z" stroke="#5E6673" stroke-miterlimit="2"/>
<path d="M265.353 493.83C265.184 494.337 264.506 497.719 264.506 497.719L264.93 499.916H279.213L280.905 501.268H285.47L287.835 498.733L292.062 499.24L295.275 498.395L296.288 496.536L297.303 494.845L295.951 493.83L294.935 495.521L292.232 495.182L289.864 496.536L289.187 493.83H288.005L285.47 495.859L282.257 496.197L280.905 495.013L278.706 495.182L276.171 495.689L273.973 496.365L271.776 496.536L271.607 494.676L269.24 495.182L267.888 495.689L265.353 493.83Z" fill="#4D5460"/>
<path fill-rule="evenodd" clip-rule="evenodd" d="M265.353 493.83C265.184 494.337 264.506 497.719 264.506 497.719L264.93 499.916H279.213L280.905 501.268H285.47L287.835 498.733L292.062 499.24L295.275 498.395L296.288 496.536L297.303 494.845L295.951 493.83L294.935 495.521L292.232 495.182L289.864 496.536L289.187 493.83H288.005L285.47 495.859L282.257 496.197L280.905 495.013L278.706 495.182L276.171 495.689L273.973 496.365L271.776 496.536L271.607 494.676L269.24 495.182L267.888 495.689L265.353 493.83Z" stroke="#5E6673" stroke-miterlimit="2"/>
<path d="M280.907 469.405V471.518L282.766 470.165L280.907 469.405Z" fill="#4D5460"/>
<path fill-rule="evenodd" clip-rule="evenodd" d="M280.907 469.405V471.518L282.766 470.165L280.907 469.405Z" stroke="#5E6673" stroke-miterlimit="2"/>
<path d="M282.764 448.524V450.385H284.116L283.44 453.089L284.116 453.934L285.976 452.245V449.708L282.764 448.524Z" fill="#4D5460"/>
<path fill-rule="evenodd" clip-rule="evenodd" d="M282.764 448.524V450.385H284.116L283.44 453.089L284.116 453.934L285.976 452.245V449.708L282.764 448.524Z" stroke="#5E6673" stroke-miterlimit="2"/>
<path d="M281.835 438.212L278.2 439.564L280.018 440.917H281.835L282.765 442.608L285.13 443.452C285.13 443.452 284.793 441.594 284.371 440.833C283.947 440.071 281.835 438.212 281.835 438.212Z" fill="#4D5460"/>
<path fill-rule="evenodd" clip-rule="evenodd" d="M281.835 438.212L278.2 439.564L280.018 440.917H281.835L282.765 442.608L285.13 443.452C285.13 443.452 284.793 441.594 284.371 440.833C283.947 440.071 281.835 438.212 281.835 438.212Z" stroke="#5E6673" stroke-miterlimit="2"/>
<path d="M254.023 447.002V448.522L255.884 450.214L258.25 451.228L260.279 453.932L264.504 455.115L266.448 458.159L269.238 459.342V456.807L264.504 453.932V450.552L259.264 449.368L256.898 447.002H254.023Z" fill="#4D5460"/>
<path fill-rule="evenodd" clip-rule="evenodd" d="M254.023 447.002V448.522L255.884 450.214L258.25 451.228L260.279 453.932L264.504 455.115L266.448 458.159L269.238 459.342V456.807L264.504 453.932V450.552L259.264 449.368L256.898 447.002H254.023Z" stroke="#5E6673" stroke-miterlimit="2"/>
<path d="M271.269 458.837L273.043 460.866L274.819 459.851L272.113 458.161L271.269 458.837Z" fill="#4D5460"/>
<path fill-rule="evenodd" clip-rule="evenodd" d="M271.269 458.837L273.043 460.866L274.819 459.851L272.113 458.161L271.269 458.837Z" stroke="#5E6673" stroke-miterlimit="2"/>
<path d="M-11.3993 255.931L-17.8948 260.348L-28.2861 265.283L-25.8184 267.102L-22.0508 267.752L-18.6742 265.283L-16.8552 263.985L-14.6477 266.323L-11.3993 267.752L-7.8919 266.323V263.595L-2.69626 263.076L0.290678 263.724L0.940607 266.193L6.1375 267.752L11.073 265.673L12.8908 264.374L14.97 265.933L17.957 267.752L26.0113 268.402L34.8451 266.973L37.0526 264.114L34.7143 262.166L31.207 261.386V259.438L32.6363 258.658L32.5068 255.931H36.0142L37.573 253.593L41.3393 250.735V243.72L37.9627 241.512H34.1951L32.6363 242.94L30.1686 242.421L29.3892 240.083L33.026 237.026L32.8965 234.368L28.0906 229.561L28.9995 227.873L31.4672 230.081L33.4157 230.34L32.3761 227.873L29.6481 225.664L29.7789 218.909L27.5701 217.221L24.5832 215.402L23.8038 211.895L24.4525 206.309L23.6731 200.853L18.9966 196.177L14.5803 194.618L12.7613 192.15H19.1273L18.7376 190.331L17.698 188.124L21.2053 186.694L26.0113 181.239L27.7008 177.6L29.3892 176.822L28.0906 173.575L22.245 171.496H16.0084L13.6702 172.016L12.7613 170.716L15.2302 169.418L15.4892 166.43H19.1273L20.8156 163.831L23.5436 161.753L23.0244 159.156H16.2687L14.3201 156.947L9.77437 158.116L6.52723 161.753L7.17591 163.962L2.75965 164.221L2.62891 167.08L0.161186 168.378L1.0701 170.977L3.79802 171.496L0.68037 173.965L0.421387 176.302L-1.65786 178.25L-4.6448 178.121L-3.86538 180.719L-1.91684 182.797L0.811115 181.239L1.0701 183.058L-1.65786 185.915L-4.12558 188.903L-4.51405 191.631L-6.5933 194.358L-5.94341 195.137L-2.69626 190.981L-0.357998 187.214V190.202L2.23921 190.981L1.71999 193.059L0.421387 193.319V195.268L1.45979 196.956L0.811115 198.125L-4.51405 202.672L-5.29469 205.79L-3.86538 207.089L-2.95646 205.53L-1.39766 205.79L-0.878435 207.219L0.940607 207.739L1.98023 206.18L2.88914 207.739L5.74781 207.609L6.52723 206.18L9.25515 206.828L10.0346 207.868L11.2037 208.906L6.52723 211.375L5.74781 214.364L6.52723 217.871L10.6832 217.481L10.4243 220.728L8.47577 222.417L5.61706 226.183L6.52723 228.652L4.83768 229.171L1.71999 227.223L-4.38456 229.692L-7.63296 230.73L-7.37272 231.38L-4.51405 232.159L-3.99487 235.667L-6.07411 240.733L-11.6595 242.032L-16.8552 243.201L-16.7257 246.448L-14.3874 247.877L-10.4904 246.189V248.917L-8.28163 249.565L-5.81391 249.826L-5.03449 251.774L-2.82697 253.463L-0.488743 252.943L3.53907 250.345L4.70819 250.605L3.79802 252.424L-1.91684 256.971L-5.16398 255.411L-9.84044 255.282L-11.3993 255.931Z" fill="#4D5460"/>
<path fill-rule="evenodd" clip-rule="evenodd" d="M-11.3993 255.931L-17.8948 260.348L-28.2861 265.283L-25.8184 267.102L-22.0508 267.752L-18.6742 265.283L-16.8552 263.985L-14.6477 266.323L-11.3993 267.752L-7.8919 266.323V263.595L-2.69626 263.076L0.290678 263.724L0.940608 266.193L6.1375 267.752L11.073 265.673L12.8908 264.374L14.97 265.933L17.957 267.752L26.0113 268.402L34.8451 266.973L37.0526 264.114L34.7143 262.166L31.207 261.386V259.438L32.6363 258.658L32.5068 255.931H36.0142L37.573 253.593L41.3393 250.735V243.72L37.9627 241.512H34.1951L32.6363 242.94L30.1686 242.421L29.3892 240.083L33.026 237.026L32.8965 234.368L28.0906 229.561L28.9995 227.873L31.4672 230.081L33.4157 230.34L32.3761 227.873L29.6481 225.664L29.7789 218.909L27.5701 217.221L24.5832 215.402L23.8038 211.895L24.4525 206.309L23.6731 200.853L18.9966 196.177L14.5803 194.618L12.7613 192.15H19.1273L18.7376 190.331L17.698 188.124L21.2053 186.694L26.0113 181.239L27.7008 177.6L29.3892 176.822L28.0906 173.575L22.245 171.496H16.0084L13.6702 172.016L12.7613 170.716L15.2302 169.418L15.4892 166.43H19.1273L20.8156 163.831L23.5436 161.753L23.0244 159.156H16.2687L14.3201 156.947L9.77437 158.116L6.52723 161.753L7.17591 163.962L2.75965 164.221L2.62891 167.08L0.161186 168.378L1.0701 170.977L3.79802 171.496L0.68037 173.965L0.421386 176.302L-1.65786 178.25L-4.6448 178.121L-3.86538 180.719L-1.91684 182.797L0.811116 181.239L1.0701 183.058L-1.65786 185.915L-4.12558 188.903L-4.51405 191.631L-6.5933 194.358L-5.9434 195.137L-2.69626 190.981L-0.357998 187.214V190.202L2.23921 190.981L1.71999 193.059L0.421386 193.319V195.268L1.45979 196.956L0.811116 198.125L-4.51405 202.672L-5.29469 205.79L-3.86538 207.089L-2.95646 205.53L-1.39766 205.79L-0.878436 207.219L0.940608 207.739L1.98023 206.18L2.88914 207.739L5.74781 207.609L6.52723 206.18L9.25515 206.828L10.0346 207.868L11.2037 208.906L6.52723 211.375L5.74781 214.364L6.52723 217.871L10.6832 217.481L10.4243 220.728L8.47577 222.417L5.61706 226.183L6.52723 228.652L4.83768 229.171L1.71999 227.223L-4.38456 229.692L-7.63296 230.73L-7.37272 231.38L-4.51405 232.159L-3.99487 235.667L-6.07411 240.733L-11.6595 242.032L-16.8552 243.201L-16.7257 246.448L-14.3874 247.877L-10.4904 246.189V248.917L-8.28163 249.565L-5.81391 249.826L-5.03449 251.774L-2.82697 253.463L-0.488744 252.943L3.53907 250.345L4.70819 250.605L3.79802 252.424L-1.91684 256.971L-5.16398 255.411L-9.84044 255.282L-11.3993 255.931Z" stroke="#5E6673" stroke-miterlimit="2"/>
<path fill-rule="evenodd" clip-rule="evenodd" d="M-1.0083 211.507L-2.43764 212.676L-3.86572 213.326V214.495L-1.0083 215.143L-0.489123 213.326L-1.0083 211.507Z" stroke="#5E6673" stroke-miterlimit="2"/>
<path d="M24.1941 152.794L24.8428 154.744L27.0515 155.653V156.951H29.259L28.4809 154.873L25.4927 153.444L24.1941 152.794Z" fill="#4D5460"/>
<path fill-rule="evenodd" clip-rule="evenodd" d="M24.1941 152.794L24.8428 154.744L27.0515 155.653V156.951H29.259L28.4809 154.873L25.4927 153.444L24.1941 152.794Z" stroke="#5E6673" stroke-miterlimit="2"/>
<path d="M1.71964 154.862L-0.4891 157.719L0.616521 159.926L-4.9041 162.265L-5.81427 163.304L-6.72314 158.498L-4.9041 156.94L1.71964 154.862Z" fill="#4D5460"/>
<path fill-rule="evenodd" clip-rule="evenodd" d="M1.71963 154.862L-0.489101 157.719L0.616521 159.926L-4.9041 162.265L-5.81427 163.304L-6.72314 158.498L-4.9041 156.94L1.71963 154.862Z" stroke="#5E6673" stroke-miterlimit="2"/>
<path d="M0.116943 376.817L4.79466 382.185L8.6046 384.436L17.9563 390.673L23.4383 389.286L28.3489 391.538L32.5062 396.119H39.0752L41.1656 397.599H46.7722" stroke="#5E6673" stroke-miterlimit="2"/>
<path d="M61.1123 279.827V285.369H63.6834L65.5883 289.699L69.0521 291.431L70.2648 293.855V297.32L73.9029 298.532L76.6744 295.068L78.0589 295.935L77.3667 300.438L76.6744 301.65L79.6178 304.767H83.4277V298.359L85.8544 296.973L87.585 295.935V289.699L84.4673 287.447L84.2955 283.983L81.8689 281.558V278.267L72.4648 279.308" stroke="#5E6673" stroke-miterlimit="2"/>
<path d="M87.585 295.941V300.618C87.585 300.618 88.2785 303.735 88.4516 304.774C88.6247 305.813 87.585 306.333 87.585 306.333L83.4277 304.774" stroke="#5E6673" stroke-miterlimit="2"/>
<path d="M100.02 256.49L100.527 261.124L98.3243 263.722L94.8605 264.415V267.187L97.6931 268.399V270.13L94.8605 271.17L93.1274 274.633H91.5685L88.4708 273.941V281.908L86.7202 284.68V289.077" stroke="#5E6673" stroke-miterlimit="2"/>
<path d="M89.6622 381.666V380.455L91.7415 378.896L89.6622 377.51L87.5842 376.818L85.9495 372.834L87.5842 369.889L85.9495 367.984V365.386L88.8455 363.481L89.6622 360.19L87.5842 356.899V353.606L88.4695 353.782" stroke="#5E6673" stroke-miterlimit="2"/>
<path d="M41.3396 137.292V140.063H39.7808V142.142L41.3396 144.566L43.592 142.661V137.292H41.3396Z" fill="#4D5460"/>
<path fill-rule="evenodd" clip-rule="evenodd" d="M41.3396 137.292V140.063H39.7808V142.142L41.3396 144.566L43.592 142.661V137.292H41.3396Z" stroke="#5E6673" stroke-miterlimit="2"/>
<path d="M20.0569 390.141L21.7477 396.119H32.5063" stroke="#5E6673" stroke-miterlimit="2"/>
<path d="M91.7415 378.895L93.4833 376.817H94.7981L96.6034 381.665" stroke="#5E6673" stroke-miterlimit="2"/>
<path d="M137.641 376.644L135.855 380.73L137.641 382.685L139.374 381.495" fill="#4D5460"/>
<path d="M137.641 376.644L135.855 380.73L137.641 382.685L139.374 381.495" stroke="#5E6673" stroke-miterlimit="2"/>
<path d="M143.155 378.828L137.403 380.327" stroke="#2F3642" stroke-miterlimit="2" stroke-linecap="round"/>
<path d="M115.233 235.86L119.797 234.677" stroke="#5E6673" stroke-miterlimit="2"/>
<path d="M211.349 391.726H205.32V393.66L206.142 397.158L202.529 398.891L200.34 402.457" stroke="#5E6673" stroke-miterlimit="2"/>
</svg>
