<svg width="16" height="16" viewBox="0 0 16 16" fill="none" xmlns="http://www.w3.org/2000/svg">
<path fill-rule="evenodd" clip-rule="evenodd" d="M12.4446 7.00021C12.4446 10.0071 10.007 12.4447 7.00009 12.4447C3.99317 12.4447 1.55558 10.0071 1.55558 7.00021C1.55558 3.99329 3.99317 1.5557 7.00009 1.5557C10.007 1.5557 12.4446 3.99329 12.4446 7.00021ZM11.3696 12.4694C10.1721 13.4274 8.65299 14.0003 7.00009 14.0003C3.13405 14.0003 0 10.8663 0 7.00021C0 3.13417 3.13405 0.00012207 7.00009 0.00012207C10.8661 0.00012207 14.0002 3.13417 14.0002 7.00021C14.0002 8.65293 13.4274 10.1719 12.4696 11.3694L16.0001 14.9L14.9002 15.9999L11.3696 12.4694Z" fill="white"/>
</svg>