<svg width="43" height="30" viewBox="0 0 43 30" fill="none" xmlns="http://www.w3.org/2000/svg">
<path d="M42.3631 10.3328C42.346 9.83059 42.3196 9.32896 42.2816 8.82789C42.1189 6.7029 41.8819 4.26921 40.4785 2.56977C39.2768 1.11507 37.4158 0.786537 35.6491 0.58644C33.4117 0.333425 31.1643 0.180731 28.9142 0.094188C24.3583 -0.0794498 19.7974 0.0214226 15.2404 0.122298C12.8993 0.174665 10.5571 0.226481 8.22263 0.412246C5.35623 0.640456 2.40879 1.0605 1.07316 3.9247C-0.125217 6.49564 0.0236113 9.76003 0.00817684 12.5261C-0.00560394 15.0061 -0.0138688 17.4872 0.085904 19.9661C0.214892 23.1825 0.405617 27.3724 3.87782 28.783C5.73161 29.536 7.96906 29.7041 9.94908 29.8331C12.0476 29.9693 14.1511 29.9527 16.2524 29.9841C20.6595 30.0492 25.066 29.8987 29.4715 29.8105C32.5319 29.7504 35.6728 29.7157 38.6015 28.7169C41.1295 27.8542 41.7887 25.1146 42.1305 22.7382C42.4706 20.3773 42.3835 17.9816 42.3802 15.6042C42.3769 13.848 42.4232 12.089 42.3631 10.3328ZM16.9012 21.4037V8.50598C20.5564 10.653 24.1769 12.7791 27.8784 14.9532C24.1901 17.1201 20.5685 19.2484 16.9012 21.4037Z" fill="#2F3642"/>
</svg>
